%TF.GenerationSoftware,KiCad,Pcbnew,6.0.11+dfsg-1*%
%TF.CreationDate,2024-04-01T21:04:22+01:00*%
%TF.ProjectId,filestick-prototype,66696c65-7374-4696-936b-2d70726f746f,rev?*%
%TF.SameCoordinates,Original*%
%TF.FileFunction,Legend,Top*%
%TF.FilePolarity,Positive*%
%FSLAX46Y46*%
G04 Gerber Fmt 4.6, Leading zero omitted, Abs format (unit mm)*
G04 Created by KiCad (PCBNEW 6.0.11+dfsg-1) date 2024-04-01 21:04:22*
%MOMM*%
%LPD*%
G01*
G04 APERTURE LIST*
%ADD10C,0.150000*%
%ADD11C,0.120000*%
G04 APERTURE END LIST*
D10*
X149439523Y-60047142D02*
X149391904Y-60094761D01*
X149249047Y-60142380D01*
X149153809Y-60142380D01*
X149010952Y-60094761D01*
X148915714Y-59999523D01*
X148868095Y-59904285D01*
X148820476Y-59713809D01*
X148820476Y-59570952D01*
X148868095Y-59380476D01*
X148915714Y-59285238D01*
X149010952Y-59190000D01*
X149153809Y-59142380D01*
X149249047Y-59142380D01*
X149391904Y-59190000D01*
X149439523Y-59237619D01*
X149868095Y-60142380D02*
X149868095Y-59142380D01*
X150106190Y-59142380D01*
X150249047Y-59190000D01*
X150344285Y-59285238D01*
X150391904Y-59380476D01*
X150439523Y-59570952D01*
X150439523Y-59713809D01*
X150391904Y-59904285D01*
X150344285Y-59999523D01*
X150249047Y-60094761D01*
X150106190Y-60142380D01*
X149868095Y-60142380D01*
X151058571Y-59142380D02*
X151249047Y-59142380D01*
X151344285Y-59190000D01*
X151439523Y-59285238D01*
X151487142Y-59475714D01*
X151487142Y-59809047D01*
X151439523Y-59999523D01*
X151344285Y-60094761D01*
X151249047Y-60142380D01*
X151058571Y-60142380D01*
X150963333Y-60094761D01*
X150868095Y-59999523D01*
X150820476Y-59809047D01*
X150820476Y-59475714D01*
X150868095Y-59285238D01*
X150963333Y-59190000D01*
X151058571Y-59142380D01*
X151915714Y-60142380D02*
X151915714Y-59142380D01*
X152487142Y-60142380D01*
X152487142Y-59142380D01*
X152963333Y-59618571D02*
X153296666Y-59618571D01*
X153439523Y-60142380D02*
X152963333Y-60142380D01*
X152963333Y-59142380D01*
X153439523Y-59142380D01*
X167473333Y-121102380D02*
X167140000Y-120626190D01*
X166901904Y-121102380D02*
X166901904Y-120102380D01*
X167282857Y-120102380D01*
X167378095Y-120150000D01*
X167425714Y-120197619D01*
X167473333Y-120292857D01*
X167473333Y-120435714D01*
X167425714Y-120530952D01*
X167378095Y-120578571D01*
X167282857Y-120626190D01*
X166901904Y-120626190D01*
X167806666Y-120102380D02*
X168473333Y-121102380D01*
X168473333Y-120102380D02*
X167806666Y-121102380D01*
X187769523Y-75287142D02*
X187721904Y-75334761D01*
X187579047Y-75382380D01*
X187483809Y-75382380D01*
X187340952Y-75334761D01*
X187245714Y-75239523D01*
X187198095Y-75144285D01*
X187150476Y-74953809D01*
X187150476Y-74810952D01*
X187198095Y-74620476D01*
X187245714Y-74525238D01*
X187340952Y-74430000D01*
X187483809Y-74382380D01*
X187579047Y-74382380D01*
X187721904Y-74430000D01*
X187769523Y-74477619D01*
X188198095Y-75382380D02*
X188198095Y-74382380D01*
X188436190Y-74382380D01*
X188579047Y-74430000D01*
X188674285Y-74525238D01*
X188721904Y-74620476D01*
X188769523Y-74810952D01*
X188769523Y-74953809D01*
X188721904Y-75144285D01*
X188674285Y-75239523D01*
X188579047Y-75334761D01*
X188436190Y-75382380D01*
X188198095Y-75382380D01*
X187269523Y-88400000D02*
X187174285Y-88352380D01*
X187031428Y-88352380D01*
X186888571Y-88400000D01*
X186793333Y-88495238D01*
X186745714Y-88590476D01*
X186698095Y-88780952D01*
X186698095Y-88923809D01*
X186745714Y-89114285D01*
X186793333Y-89209523D01*
X186888571Y-89304761D01*
X187031428Y-89352380D01*
X187126666Y-89352380D01*
X187269523Y-89304761D01*
X187317142Y-89257142D01*
X187317142Y-88923809D01*
X187126666Y-88923809D01*
X187698095Y-88447619D02*
X187745714Y-88400000D01*
X187840952Y-88352380D01*
X188079047Y-88352380D01*
X188174285Y-88400000D01*
X188221904Y-88447619D01*
X188269523Y-88542857D01*
X188269523Y-88638095D01*
X188221904Y-88780952D01*
X187650476Y-89352380D01*
X188269523Y-89352380D01*
X188888571Y-88352380D02*
X188983809Y-88352380D01*
X189079047Y-88400000D01*
X189126666Y-88447619D01*
X189174285Y-88542857D01*
X189221904Y-88733333D01*
X189221904Y-88971428D01*
X189174285Y-89161904D01*
X189126666Y-89257142D01*
X189079047Y-89304761D01*
X188983809Y-89352380D01*
X188888571Y-89352380D01*
X188793333Y-89304761D01*
X188745714Y-89257142D01*
X188698095Y-89161904D01*
X188650476Y-88971428D01*
X188650476Y-88733333D01*
X188698095Y-88542857D01*
X188745714Y-88447619D01*
X188793333Y-88400000D01*
X188888571Y-88352380D01*
X186714285Y-59904761D02*
X186857142Y-59952380D01*
X187095238Y-59952380D01*
X187190476Y-59904761D01*
X187238095Y-59857142D01*
X187285714Y-59761904D01*
X187285714Y-59666666D01*
X187238095Y-59571428D01*
X187190476Y-59523809D01*
X187095238Y-59476190D01*
X186904761Y-59428571D01*
X186809523Y-59380952D01*
X186761904Y-59333333D01*
X186714285Y-59238095D01*
X186714285Y-59142857D01*
X186761904Y-59047619D01*
X186809523Y-59000000D01*
X186904761Y-58952380D01*
X187142857Y-58952380D01*
X187285714Y-59000000D01*
X188285714Y-59857142D02*
X188238095Y-59904761D01*
X188095238Y-59952380D01*
X188000000Y-59952380D01*
X187857142Y-59904761D01*
X187761904Y-59809523D01*
X187714285Y-59714285D01*
X187666666Y-59523809D01*
X187666666Y-59380952D01*
X187714285Y-59190476D01*
X187761904Y-59095238D01*
X187857142Y-59000000D01*
X188000000Y-58952380D01*
X188095238Y-58952380D01*
X188238095Y-59000000D01*
X188285714Y-59047619D01*
X188714285Y-59952380D02*
X188714285Y-58952380D01*
X189285714Y-59952380D02*
X188857142Y-59380952D01*
X189285714Y-58952380D02*
X188714285Y-59523809D01*
X151709523Y-64270000D02*
X151614285Y-64222380D01*
X151471428Y-64222380D01*
X151328571Y-64270000D01*
X151233333Y-64365238D01*
X151185714Y-64460476D01*
X151138095Y-64650952D01*
X151138095Y-64793809D01*
X151185714Y-64984285D01*
X151233333Y-65079523D01*
X151328571Y-65174761D01*
X151471428Y-65222380D01*
X151566666Y-65222380D01*
X151709523Y-65174761D01*
X151757142Y-65127142D01*
X151757142Y-64793809D01*
X151566666Y-64793809D01*
X152090476Y-64222380D02*
X152709523Y-64222380D01*
X152376190Y-64603333D01*
X152519047Y-64603333D01*
X152614285Y-64650952D01*
X152661904Y-64698571D01*
X152709523Y-64793809D01*
X152709523Y-65031904D01*
X152661904Y-65127142D01*
X152614285Y-65174761D01*
X152519047Y-65222380D01*
X152233333Y-65222380D01*
X152138095Y-65174761D01*
X152090476Y-65127142D01*
X153185714Y-65222380D02*
X153376190Y-65222380D01*
X153471428Y-65174761D01*
X153519047Y-65127142D01*
X153614285Y-64984285D01*
X153661904Y-64793809D01*
X153661904Y-64412857D01*
X153614285Y-64317619D01*
X153566666Y-64270000D01*
X153471428Y-64222380D01*
X153280952Y-64222380D01*
X153185714Y-64270000D01*
X153138095Y-64317619D01*
X153090476Y-64412857D01*
X153090476Y-64650952D01*
X153138095Y-64746190D01*
X153185714Y-64793809D01*
X153280952Y-64841428D01*
X153471428Y-64841428D01*
X153566666Y-64793809D01*
X153614285Y-64746190D01*
X153661904Y-64650952D01*
X187745714Y-98560000D02*
X187650476Y-98512380D01*
X187507619Y-98512380D01*
X187364761Y-98560000D01*
X187269523Y-98655238D01*
X187221904Y-98750476D01*
X187174285Y-98940952D01*
X187174285Y-99083809D01*
X187221904Y-99274285D01*
X187269523Y-99369523D01*
X187364761Y-99464761D01*
X187507619Y-99512380D01*
X187602857Y-99512380D01*
X187745714Y-99464761D01*
X187793333Y-99417142D01*
X187793333Y-99083809D01*
X187602857Y-99083809D01*
X188269523Y-99512380D02*
X188460000Y-99512380D01*
X188555238Y-99464761D01*
X188602857Y-99417142D01*
X188698095Y-99274285D01*
X188745714Y-99083809D01*
X188745714Y-98702857D01*
X188698095Y-98607619D01*
X188650476Y-98560000D01*
X188555238Y-98512380D01*
X188364761Y-98512380D01*
X188269523Y-98560000D01*
X188221904Y-98607619D01*
X188174285Y-98702857D01*
X188174285Y-98940952D01*
X188221904Y-99036190D01*
X188269523Y-99083809D01*
X188364761Y-99131428D01*
X188555238Y-99131428D01*
X188650476Y-99083809D01*
X188698095Y-99036190D01*
X188745714Y-98940952D01*
X187198095Y-76970000D02*
X187102857Y-76922380D01*
X186960000Y-76922380D01*
X186817142Y-76970000D01*
X186721904Y-77065238D01*
X186674285Y-77160476D01*
X186626666Y-77350952D01*
X186626666Y-77493809D01*
X186674285Y-77684285D01*
X186721904Y-77779523D01*
X186817142Y-77874761D01*
X186960000Y-77922380D01*
X187055238Y-77922380D01*
X187198095Y-77874761D01*
X187245714Y-77827142D01*
X187245714Y-77493809D01*
X187055238Y-77493809D01*
X187674285Y-77922380D02*
X187674285Y-76922380D01*
X188245714Y-77922380D01*
X188245714Y-76922380D01*
X188721904Y-77922380D02*
X188721904Y-76922380D01*
X188960000Y-76922380D01*
X189102857Y-76970000D01*
X189198095Y-77065238D01*
X189245714Y-77160476D01*
X189293333Y-77350952D01*
X189293333Y-77493809D01*
X189245714Y-77684285D01*
X189198095Y-77779523D01*
X189102857Y-77874761D01*
X188960000Y-77922380D01*
X188721904Y-77922380D01*
X187269523Y-90940000D02*
X187174285Y-90892380D01*
X187031428Y-90892380D01*
X186888571Y-90940000D01*
X186793333Y-91035238D01*
X186745714Y-91130476D01*
X186698095Y-91320952D01*
X186698095Y-91463809D01*
X186745714Y-91654285D01*
X186793333Y-91749523D01*
X186888571Y-91844761D01*
X187031428Y-91892380D01*
X187126666Y-91892380D01*
X187269523Y-91844761D01*
X187317142Y-91797142D01*
X187317142Y-91463809D01*
X187126666Y-91463809D01*
X188269523Y-91892380D02*
X187698095Y-91892380D01*
X187983809Y-91892380D02*
X187983809Y-90892380D01*
X187888571Y-91035238D01*
X187793333Y-91130476D01*
X187698095Y-91178095D01*
X188745714Y-91892380D02*
X188936190Y-91892380D01*
X189031428Y-91844761D01*
X189079047Y-91797142D01*
X189174285Y-91654285D01*
X189221904Y-91463809D01*
X189221904Y-91082857D01*
X189174285Y-90987619D01*
X189126666Y-90940000D01*
X189031428Y-90892380D01*
X188840952Y-90892380D01*
X188745714Y-90940000D01*
X188698095Y-90987619D01*
X188650476Y-91082857D01*
X188650476Y-91320952D01*
X188698095Y-91416190D01*
X188745714Y-91463809D01*
X188840952Y-91511428D01*
X189031428Y-91511428D01*
X189126666Y-91463809D01*
X189174285Y-91416190D01*
X189221904Y-91320952D01*
X151457142Y-123242857D02*
X151504761Y-123290476D01*
X151552380Y-123433333D01*
X151552380Y-123528571D01*
X151504761Y-123671428D01*
X151409523Y-123766666D01*
X151314285Y-123814285D01*
X151123809Y-123861904D01*
X150980952Y-123861904D01*
X150790476Y-123814285D01*
X150695238Y-123766666D01*
X150600000Y-123671428D01*
X150552380Y-123528571D01*
X150552380Y-123433333D01*
X150600000Y-123290476D01*
X150647619Y-123242857D01*
X151028571Y-122814285D02*
X151028571Y-122480952D01*
X151552380Y-122338095D02*
X151552380Y-122814285D01*
X150552380Y-122814285D01*
X150552380Y-122338095D01*
X178308095Y-123960000D02*
X178212857Y-123912380D01*
X178070000Y-123912380D01*
X177927142Y-123960000D01*
X177831904Y-124055238D01*
X177784285Y-124150476D01*
X177736666Y-124340952D01*
X177736666Y-124483809D01*
X177784285Y-124674285D01*
X177831904Y-124769523D01*
X177927142Y-124864761D01*
X178070000Y-124912380D01*
X178165238Y-124912380D01*
X178308095Y-124864761D01*
X178355714Y-124817142D01*
X178355714Y-124483809D01*
X178165238Y-124483809D01*
X178784285Y-124912380D02*
X178784285Y-123912380D01*
X179355714Y-124912380D01*
X179355714Y-123912380D01*
X179831904Y-124912380D02*
X179831904Y-123912380D01*
X180070000Y-123912380D01*
X180212857Y-123960000D01*
X180308095Y-124055238D01*
X180355714Y-124150476D01*
X180403333Y-124340952D01*
X180403333Y-124483809D01*
X180355714Y-124674285D01*
X180308095Y-124769523D01*
X180212857Y-124864761D01*
X180070000Y-124912380D01*
X179831904Y-124912380D01*
X187745714Y-106180000D02*
X187650476Y-106132380D01*
X187507619Y-106132380D01*
X187364761Y-106180000D01*
X187269523Y-106275238D01*
X187221904Y-106370476D01*
X187174285Y-106560952D01*
X187174285Y-106703809D01*
X187221904Y-106894285D01*
X187269523Y-106989523D01*
X187364761Y-107084761D01*
X187507619Y-107132380D01*
X187602857Y-107132380D01*
X187745714Y-107084761D01*
X187793333Y-107037142D01*
X187793333Y-106703809D01*
X187602857Y-106703809D01*
X188650476Y-106465714D02*
X188650476Y-107132380D01*
X188412380Y-106084761D02*
X188174285Y-106799047D01*
X188793333Y-106799047D01*
X187269523Y-96020000D02*
X187174285Y-95972380D01*
X187031428Y-95972380D01*
X186888571Y-96020000D01*
X186793333Y-96115238D01*
X186745714Y-96210476D01*
X186698095Y-96400952D01*
X186698095Y-96543809D01*
X186745714Y-96734285D01*
X186793333Y-96829523D01*
X186888571Y-96924761D01*
X187031428Y-96972380D01*
X187126666Y-96972380D01*
X187269523Y-96924761D01*
X187317142Y-96877142D01*
X187317142Y-96543809D01*
X187126666Y-96543809D01*
X188269523Y-96972380D02*
X187698095Y-96972380D01*
X187983809Y-96972380D02*
X187983809Y-95972380D01*
X187888571Y-96115238D01*
X187793333Y-96210476D01*
X187698095Y-96258095D01*
X189221904Y-96972380D02*
X188650476Y-96972380D01*
X188936190Y-96972380D02*
X188936190Y-95972380D01*
X188840952Y-96115238D01*
X188745714Y-96210476D01*
X188650476Y-96258095D01*
X187102857Y-64952380D02*
X187102857Y-63952380D01*
X187436190Y-64666666D01*
X187769523Y-63952380D01*
X187769523Y-64952380D01*
X188436190Y-63952380D02*
X188626666Y-63952380D01*
X188721904Y-64000000D01*
X188817142Y-64095238D01*
X188864761Y-64285714D01*
X188864761Y-64619047D01*
X188817142Y-64809523D01*
X188721904Y-64904761D01*
X188626666Y-64952380D01*
X188436190Y-64952380D01*
X188340952Y-64904761D01*
X188245714Y-64809523D01*
X188198095Y-64619047D01*
X188198095Y-64285714D01*
X188245714Y-64095238D01*
X188340952Y-64000000D01*
X188436190Y-63952380D01*
X186721904Y-67714761D02*
X186864761Y-67762380D01*
X187102857Y-67762380D01*
X187198095Y-67714761D01*
X187245714Y-67667142D01*
X187293333Y-67571904D01*
X187293333Y-67476666D01*
X187245714Y-67381428D01*
X187198095Y-67333809D01*
X187102857Y-67286190D01*
X186912380Y-67238571D01*
X186817142Y-67190952D01*
X186769523Y-67143333D01*
X186721904Y-67048095D01*
X186721904Y-66952857D01*
X186769523Y-66857619D01*
X186817142Y-66810000D01*
X186912380Y-66762380D01*
X187150476Y-66762380D01*
X187293333Y-66810000D01*
X187674285Y-67714761D02*
X187817142Y-67762380D01*
X188055238Y-67762380D01*
X188150476Y-67714761D01*
X188198095Y-67667142D01*
X188245714Y-67571904D01*
X188245714Y-67476666D01*
X188198095Y-67381428D01*
X188150476Y-67333809D01*
X188055238Y-67286190D01*
X187864761Y-67238571D01*
X187769523Y-67190952D01*
X187721904Y-67143333D01*
X187674285Y-67048095D01*
X187674285Y-66952857D01*
X187721904Y-66857619D01*
X187769523Y-66810000D01*
X187864761Y-66762380D01*
X188102857Y-66762380D01*
X188245714Y-66810000D01*
X189198095Y-67762380D02*
X188626666Y-67762380D01*
X188912380Y-67762380D02*
X188912380Y-66762380D01*
X188817142Y-66905238D01*
X188721904Y-67000476D01*
X188626666Y-67048095D01*
X187269523Y-103640000D02*
X187174285Y-103592380D01*
X187031428Y-103592380D01*
X186888571Y-103640000D01*
X186793333Y-103735238D01*
X186745714Y-103830476D01*
X186698095Y-104020952D01*
X186698095Y-104163809D01*
X186745714Y-104354285D01*
X186793333Y-104449523D01*
X186888571Y-104544761D01*
X187031428Y-104592380D01*
X187126666Y-104592380D01*
X187269523Y-104544761D01*
X187317142Y-104497142D01*
X187317142Y-104163809D01*
X187126666Y-104163809D01*
X188174285Y-103925714D02*
X188174285Y-104592380D01*
X187936190Y-103544761D02*
X187698095Y-104259047D01*
X188317142Y-104259047D01*
X189126666Y-103925714D02*
X189126666Y-104592380D01*
X188888571Y-103544761D02*
X188650476Y-104259047D01*
X189269523Y-104259047D01*
X187745714Y-108720000D02*
X187650476Y-108672380D01*
X187507619Y-108672380D01*
X187364761Y-108720000D01*
X187269523Y-108815238D01*
X187221904Y-108910476D01*
X187174285Y-109100952D01*
X187174285Y-109243809D01*
X187221904Y-109434285D01*
X187269523Y-109529523D01*
X187364761Y-109624761D01*
X187507619Y-109672380D01*
X187602857Y-109672380D01*
X187745714Y-109624761D01*
X187793333Y-109577142D01*
X187793333Y-109243809D01*
X187602857Y-109243809D01*
X188126666Y-108672380D02*
X188745714Y-108672380D01*
X188412380Y-109053333D01*
X188555238Y-109053333D01*
X188650476Y-109100952D01*
X188698095Y-109148571D01*
X188745714Y-109243809D01*
X188745714Y-109481904D01*
X188698095Y-109577142D01*
X188650476Y-109624761D01*
X188555238Y-109672380D01*
X188269523Y-109672380D01*
X188174285Y-109624761D01*
X188126666Y-109577142D01*
X187269523Y-111260000D02*
X187174285Y-111212380D01*
X187031428Y-111212380D01*
X186888571Y-111260000D01*
X186793333Y-111355238D01*
X186745714Y-111450476D01*
X186698095Y-111640952D01*
X186698095Y-111783809D01*
X186745714Y-111974285D01*
X186793333Y-112069523D01*
X186888571Y-112164761D01*
X187031428Y-112212380D01*
X187126666Y-112212380D01*
X187269523Y-112164761D01*
X187317142Y-112117142D01*
X187317142Y-111783809D01*
X187126666Y-111783809D01*
X188174285Y-111545714D02*
X188174285Y-112212380D01*
X187936190Y-111164761D02*
X187698095Y-111879047D01*
X188317142Y-111879047D01*
X188840952Y-111640952D02*
X188745714Y-111593333D01*
X188698095Y-111545714D01*
X188650476Y-111450476D01*
X188650476Y-111402857D01*
X188698095Y-111307619D01*
X188745714Y-111260000D01*
X188840952Y-111212380D01*
X189031428Y-111212380D01*
X189126666Y-111260000D01*
X189174285Y-111307619D01*
X189221904Y-111402857D01*
X189221904Y-111450476D01*
X189174285Y-111545714D01*
X189126666Y-111593333D01*
X189031428Y-111640952D01*
X188840952Y-111640952D01*
X188745714Y-111688571D01*
X188698095Y-111736190D01*
X188650476Y-111831428D01*
X188650476Y-112021904D01*
X188698095Y-112117142D01*
X188745714Y-112164761D01*
X188840952Y-112212380D01*
X189031428Y-112212380D01*
X189126666Y-112164761D01*
X189174285Y-112117142D01*
X189221904Y-112021904D01*
X189221904Y-111831428D01*
X189174285Y-111736190D01*
X189126666Y-111688571D01*
X189031428Y-111640952D01*
X186721904Y-72794761D02*
X186864761Y-72842380D01*
X187102857Y-72842380D01*
X187198095Y-72794761D01*
X187245714Y-72747142D01*
X187293333Y-72651904D01*
X187293333Y-72556666D01*
X187245714Y-72461428D01*
X187198095Y-72413809D01*
X187102857Y-72366190D01*
X186912380Y-72318571D01*
X186817142Y-72270952D01*
X186769523Y-72223333D01*
X186721904Y-72128095D01*
X186721904Y-72032857D01*
X186769523Y-71937619D01*
X186817142Y-71890000D01*
X186912380Y-71842380D01*
X187150476Y-71842380D01*
X187293333Y-71890000D01*
X187674285Y-72794761D02*
X187817142Y-72842380D01*
X188055238Y-72842380D01*
X188150476Y-72794761D01*
X188198095Y-72747142D01*
X188245714Y-72651904D01*
X188245714Y-72556666D01*
X188198095Y-72461428D01*
X188150476Y-72413809D01*
X188055238Y-72366190D01*
X187864761Y-72318571D01*
X187769523Y-72270952D01*
X187721904Y-72223333D01*
X187674285Y-72128095D01*
X187674285Y-72032857D01*
X187721904Y-71937619D01*
X187769523Y-71890000D01*
X187864761Y-71842380D01*
X188102857Y-71842380D01*
X188245714Y-71890000D01*
X188579047Y-71842380D02*
X189198095Y-71842380D01*
X188864761Y-72223333D01*
X189007619Y-72223333D01*
X189102857Y-72270952D01*
X189150476Y-72318571D01*
X189198095Y-72413809D01*
X189198095Y-72651904D01*
X189150476Y-72747142D01*
X189102857Y-72794761D01*
X189007619Y-72842380D01*
X188721904Y-72842380D01*
X188626666Y-72794761D01*
X188579047Y-72747142D01*
X187269523Y-113800000D02*
X187174285Y-113752380D01*
X187031428Y-113752380D01*
X186888571Y-113800000D01*
X186793333Y-113895238D01*
X186745714Y-113990476D01*
X186698095Y-114180952D01*
X186698095Y-114323809D01*
X186745714Y-114514285D01*
X186793333Y-114609523D01*
X186888571Y-114704761D01*
X187031428Y-114752380D01*
X187126666Y-114752380D01*
X187269523Y-114704761D01*
X187317142Y-114657142D01*
X187317142Y-114323809D01*
X187126666Y-114323809D01*
X188174285Y-114085714D02*
X188174285Y-114752380D01*
X187936190Y-113704761D02*
X187698095Y-114419047D01*
X188317142Y-114419047D01*
X189174285Y-113752380D02*
X188698095Y-113752380D01*
X188650476Y-114228571D01*
X188698095Y-114180952D01*
X188793333Y-114133333D01*
X189031428Y-114133333D01*
X189126666Y-114180952D01*
X189174285Y-114228571D01*
X189221904Y-114323809D01*
X189221904Y-114561904D01*
X189174285Y-114657142D01*
X189126666Y-114704761D01*
X189031428Y-114752380D01*
X188793333Y-114752380D01*
X188698095Y-114704761D01*
X188650476Y-114657142D01*
X164338095Y-120102380D02*
X164909523Y-120102380D01*
X164623809Y-121102380D02*
X164623809Y-120102380D01*
X165147619Y-120102380D02*
X165814285Y-121102380D01*
X165814285Y-120102380D02*
X165147619Y-121102380D01*
X154152380Y-123688095D02*
X154152380Y-123116666D01*
X155152380Y-123402380D02*
X154152380Y-123402380D01*
X154628571Y-122783333D02*
X154628571Y-122450000D01*
X155152380Y-122307142D02*
X155152380Y-122783333D01*
X154152380Y-122783333D01*
X154152380Y-122307142D01*
X151304761Y-56602380D02*
X151638095Y-57602380D01*
X151971428Y-56602380D01*
X152304761Y-57602380D02*
X152304761Y-56602380D01*
X152971428Y-56602380D02*
X153161904Y-56602380D01*
X153257142Y-56650000D01*
X153352380Y-56745238D01*
X153400000Y-56935714D01*
X153400000Y-57269047D01*
X153352380Y-57459523D01*
X153257142Y-57554761D01*
X153161904Y-57602380D01*
X152971428Y-57602380D01*
X152876190Y-57554761D01*
X152780952Y-57459523D01*
X152733333Y-57269047D01*
X152733333Y-56935714D01*
X152780952Y-56745238D01*
X152876190Y-56650000D01*
X152971428Y-56602380D01*
X187269523Y-116340000D02*
X187174285Y-116292380D01*
X187031428Y-116292380D01*
X186888571Y-116340000D01*
X186793333Y-116435238D01*
X186745714Y-116530476D01*
X186698095Y-116720952D01*
X186698095Y-116863809D01*
X186745714Y-117054285D01*
X186793333Y-117149523D01*
X186888571Y-117244761D01*
X187031428Y-117292380D01*
X187126666Y-117292380D01*
X187269523Y-117244761D01*
X187317142Y-117197142D01*
X187317142Y-116863809D01*
X187126666Y-116863809D01*
X188174285Y-116625714D02*
X188174285Y-117292380D01*
X187936190Y-116244761D02*
X187698095Y-116959047D01*
X188317142Y-116959047D01*
X188602857Y-116292380D02*
X189269523Y-116292380D01*
X188840952Y-117292380D01*
X151709523Y-66810000D02*
X151614285Y-66762380D01*
X151471428Y-66762380D01*
X151328571Y-66810000D01*
X151233333Y-66905238D01*
X151185714Y-67000476D01*
X151138095Y-67190952D01*
X151138095Y-67333809D01*
X151185714Y-67524285D01*
X151233333Y-67619523D01*
X151328571Y-67714761D01*
X151471428Y-67762380D01*
X151566666Y-67762380D01*
X151709523Y-67714761D01*
X151757142Y-67667142D01*
X151757142Y-67333809D01*
X151566666Y-67333809D01*
X152614285Y-67095714D02*
X152614285Y-67762380D01*
X152376190Y-66714761D02*
X152138095Y-67429047D01*
X152757142Y-67429047D01*
X153328571Y-66762380D02*
X153423809Y-66762380D01*
X153519047Y-66810000D01*
X153566666Y-66857619D01*
X153614285Y-66952857D01*
X153661904Y-67143333D01*
X153661904Y-67381428D01*
X153614285Y-67571904D01*
X153566666Y-67667142D01*
X153519047Y-67714761D01*
X153423809Y-67762380D01*
X153328571Y-67762380D01*
X153233333Y-67714761D01*
X153185714Y-67667142D01*
X153138095Y-67571904D01*
X153090476Y-67381428D01*
X153090476Y-67143333D01*
X153138095Y-66952857D01*
X153185714Y-66857619D01*
X153233333Y-66810000D01*
X153328571Y-66762380D01*
X186761904Y-57404761D02*
X186904761Y-57452380D01*
X187142857Y-57452380D01*
X187238095Y-57404761D01*
X187285714Y-57357142D01*
X187333333Y-57261904D01*
X187333333Y-57166666D01*
X187285714Y-57071428D01*
X187238095Y-57023809D01*
X187142857Y-56976190D01*
X186952380Y-56928571D01*
X186857142Y-56880952D01*
X186809523Y-56833333D01*
X186761904Y-56738095D01*
X186761904Y-56642857D01*
X186809523Y-56547619D01*
X186857142Y-56500000D01*
X186952380Y-56452380D01*
X187190476Y-56452380D01*
X187333333Y-56500000D01*
X187714285Y-57404761D02*
X187857142Y-57452380D01*
X188095238Y-57452380D01*
X188190476Y-57404761D01*
X188238095Y-57357142D01*
X188285714Y-57261904D01*
X188285714Y-57166666D01*
X188238095Y-57071428D01*
X188190476Y-57023809D01*
X188095238Y-56976190D01*
X187904761Y-56928571D01*
X187809523Y-56880952D01*
X187761904Y-56833333D01*
X187714285Y-56738095D01*
X187714285Y-56642857D01*
X187761904Y-56547619D01*
X187809523Y-56500000D01*
X187904761Y-56452380D01*
X188142857Y-56452380D01*
X188285714Y-56500000D01*
X188904761Y-56452380D02*
X189000000Y-56452380D01*
X189095238Y-56500000D01*
X189142857Y-56547619D01*
X189190476Y-56642857D01*
X189238095Y-56833333D01*
X189238095Y-57071428D01*
X189190476Y-57261904D01*
X189142857Y-57357142D01*
X189095238Y-57404761D01*
X189000000Y-57452380D01*
X188904761Y-57452380D01*
X188809523Y-57404761D01*
X188761904Y-57357142D01*
X188714285Y-57261904D01*
X188666666Y-57071428D01*
X188666666Y-56833333D01*
X188714285Y-56642857D01*
X188761904Y-56547619D01*
X188809523Y-56500000D01*
X188904761Y-56452380D01*
X187745714Y-101100000D02*
X187650476Y-101052380D01*
X187507619Y-101052380D01*
X187364761Y-101100000D01*
X187269523Y-101195238D01*
X187221904Y-101290476D01*
X187174285Y-101480952D01*
X187174285Y-101623809D01*
X187221904Y-101814285D01*
X187269523Y-101909523D01*
X187364761Y-102004761D01*
X187507619Y-102052380D01*
X187602857Y-102052380D01*
X187745714Y-102004761D01*
X187793333Y-101957142D01*
X187793333Y-101623809D01*
X187602857Y-101623809D01*
X188650476Y-101052380D02*
X188460000Y-101052380D01*
X188364761Y-101100000D01*
X188317142Y-101147619D01*
X188221904Y-101290476D01*
X188174285Y-101480952D01*
X188174285Y-101861904D01*
X188221904Y-101957142D01*
X188269523Y-102004761D01*
X188364761Y-102052380D01*
X188555238Y-102052380D01*
X188650476Y-102004761D01*
X188698095Y-101957142D01*
X188745714Y-101861904D01*
X188745714Y-101623809D01*
X188698095Y-101528571D01*
X188650476Y-101480952D01*
X188555238Y-101433333D01*
X188364761Y-101433333D01*
X188269523Y-101480952D01*
X188221904Y-101528571D01*
X188174285Y-101623809D01*
X186769523Y-85812380D02*
X187388571Y-85812380D01*
X187055238Y-86193333D01*
X187198095Y-86193333D01*
X187293333Y-86240952D01*
X187340952Y-86288571D01*
X187388571Y-86383809D01*
X187388571Y-86621904D01*
X187340952Y-86717142D01*
X187293333Y-86764761D01*
X187198095Y-86812380D01*
X186912380Y-86812380D01*
X186817142Y-86764761D01*
X186769523Y-86717142D01*
X187721904Y-86145714D02*
X187960000Y-86812380D01*
X188198095Y-86145714D01*
X188483809Y-85812380D02*
X189102857Y-85812380D01*
X188769523Y-86193333D01*
X188912380Y-86193333D01*
X189007619Y-86240952D01*
X189055238Y-86288571D01*
X189102857Y-86383809D01*
X189102857Y-86621904D01*
X189055238Y-86717142D01*
X189007619Y-86764761D01*
X188912380Y-86812380D01*
X188626666Y-86812380D01*
X188531428Y-86764761D01*
X188483809Y-86717142D01*
X187745714Y-121420000D02*
X187650476Y-121372380D01*
X187507619Y-121372380D01*
X187364761Y-121420000D01*
X187269523Y-121515238D01*
X187221904Y-121610476D01*
X187174285Y-121800952D01*
X187174285Y-121943809D01*
X187221904Y-122134285D01*
X187269523Y-122229523D01*
X187364761Y-122324761D01*
X187507619Y-122372380D01*
X187602857Y-122372380D01*
X187745714Y-122324761D01*
X187793333Y-122277142D01*
X187793333Y-121943809D01*
X187602857Y-121943809D01*
X188174285Y-121467619D02*
X188221904Y-121420000D01*
X188317142Y-121372380D01*
X188555238Y-121372380D01*
X188650476Y-121420000D01*
X188698095Y-121467619D01*
X188745714Y-121562857D01*
X188745714Y-121658095D01*
X188698095Y-121800952D01*
X188126666Y-122372380D01*
X188745714Y-122372380D01*
X187269523Y-118880000D02*
X187174285Y-118832380D01*
X187031428Y-118832380D01*
X186888571Y-118880000D01*
X186793333Y-118975238D01*
X186745714Y-119070476D01*
X186698095Y-119260952D01*
X186698095Y-119403809D01*
X186745714Y-119594285D01*
X186793333Y-119689523D01*
X186888571Y-119784761D01*
X187031428Y-119832380D01*
X187126666Y-119832380D01*
X187269523Y-119784761D01*
X187317142Y-119737142D01*
X187317142Y-119403809D01*
X187126666Y-119403809D01*
X188174285Y-119165714D02*
X188174285Y-119832380D01*
X187936190Y-118784761D02*
X187698095Y-119499047D01*
X188317142Y-119499047D01*
X189126666Y-118832380D02*
X188936190Y-118832380D01*
X188840952Y-118880000D01*
X188793333Y-118927619D01*
X188698095Y-119070476D01*
X188650476Y-119260952D01*
X188650476Y-119641904D01*
X188698095Y-119737142D01*
X188745714Y-119784761D01*
X188840952Y-119832380D01*
X189031428Y-119832380D01*
X189126666Y-119784761D01*
X189174285Y-119737142D01*
X189221904Y-119641904D01*
X189221904Y-119403809D01*
X189174285Y-119308571D01*
X189126666Y-119260952D01*
X189031428Y-119213333D01*
X188840952Y-119213333D01*
X188745714Y-119260952D01*
X188698095Y-119308571D01*
X188650476Y-119403809D01*
X151709523Y-61730000D02*
X151614285Y-61682380D01*
X151471428Y-61682380D01*
X151328571Y-61730000D01*
X151233333Y-61825238D01*
X151185714Y-61920476D01*
X151138095Y-62110952D01*
X151138095Y-62253809D01*
X151185714Y-62444285D01*
X151233333Y-62539523D01*
X151328571Y-62634761D01*
X151471428Y-62682380D01*
X151566666Y-62682380D01*
X151709523Y-62634761D01*
X151757142Y-62587142D01*
X151757142Y-62253809D01*
X151566666Y-62253809D01*
X152614285Y-62015714D02*
X152614285Y-62682380D01*
X152376190Y-61634761D02*
X152138095Y-62349047D01*
X152757142Y-62349047D01*
X153661904Y-62682380D02*
X153090476Y-62682380D01*
X153376190Y-62682380D02*
X153376190Y-61682380D01*
X153280952Y-61825238D01*
X153185714Y-61920476D01*
X153090476Y-61968095D01*
X187269523Y-93480000D02*
X187174285Y-93432380D01*
X187031428Y-93432380D01*
X186888571Y-93480000D01*
X186793333Y-93575238D01*
X186745714Y-93670476D01*
X186698095Y-93860952D01*
X186698095Y-94003809D01*
X186745714Y-94194285D01*
X186793333Y-94289523D01*
X186888571Y-94384761D01*
X187031428Y-94432380D01*
X187126666Y-94432380D01*
X187269523Y-94384761D01*
X187317142Y-94337142D01*
X187317142Y-94003809D01*
X187126666Y-94003809D01*
X188269523Y-94432380D02*
X187698095Y-94432380D01*
X187983809Y-94432380D02*
X187983809Y-93432380D01*
X187888571Y-93575238D01*
X187793333Y-93670476D01*
X187698095Y-93718095D01*
X188840952Y-93860952D02*
X188745714Y-93813333D01*
X188698095Y-93765714D01*
X188650476Y-93670476D01*
X188650476Y-93622857D01*
X188698095Y-93527619D01*
X188745714Y-93480000D01*
X188840952Y-93432380D01*
X189031428Y-93432380D01*
X189126666Y-93480000D01*
X189174285Y-93527619D01*
X189221904Y-93622857D01*
X189221904Y-93670476D01*
X189174285Y-93765714D01*
X189126666Y-93813333D01*
X189031428Y-93860952D01*
X188840952Y-93860952D01*
X188745714Y-93908571D01*
X188698095Y-93956190D01*
X188650476Y-94051428D01*
X188650476Y-94241904D01*
X188698095Y-94337142D01*
X188745714Y-94384761D01*
X188840952Y-94432380D01*
X189031428Y-94432380D01*
X189126666Y-94384761D01*
X189174285Y-94337142D01*
X189221904Y-94241904D01*
X189221904Y-94051428D01*
X189174285Y-93956190D01*
X189126666Y-93908571D01*
X189031428Y-93860952D01*
X186721904Y-70254761D02*
X186864761Y-70302380D01*
X187102857Y-70302380D01*
X187198095Y-70254761D01*
X187245714Y-70207142D01*
X187293333Y-70111904D01*
X187293333Y-70016666D01*
X187245714Y-69921428D01*
X187198095Y-69873809D01*
X187102857Y-69826190D01*
X186912380Y-69778571D01*
X186817142Y-69730952D01*
X186769523Y-69683333D01*
X186721904Y-69588095D01*
X186721904Y-69492857D01*
X186769523Y-69397619D01*
X186817142Y-69350000D01*
X186912380Y-69302380D01*
X187150476Y-69302380D01*
X187293333Y-69350000D01*
X187674285Y-70254761D02*
X187817142Y-70302380D01*
X188055238Y-70302380D01*
X188150476Y-70254761D01*
X188198095Y-70207142D01*
X188245714Y-70111904D01*
X188245714Y-70016666D01*
X188198095Y-69921428D01*
X188150476Y-69873809D01*
X188055238Y-69826190D01*
X187864761Y-69778571D01*
X187769523Y-69730952D01*
X187721904Y-69683333D01*
X187674285Y-69588095D01*
X187674285Y-69492857D01*
X187721904Y-69397619D01*
X187769523Y-69350000D01*
X187864761Y-69302380D01*
X188102857Y-69302380D01*
X188245714Y-69350000D01*
X188626666Y-69397619D02*
X188674285Y-69350000D01*
X188769523Y-69302380D01*
X189007619Y-69302380D01*
X189102857Y-69350000D01*
X189150476Y-69397619D01*
X189198095Y-69492857D01*
X189198095Y-69588095D01*
X189150476Y-69730952D01*
X188579047Y-70302380D01*
X189198095Y-70302380D01*
X187388571Y-62452380D02*
X187388571Y-61452380D01*
X187721904Y-62166666D01*
X188055238Y-61452380D01*
X188055238Y-62452380D01*
X188531428Y-62452380D02*
X188531428Y-61452380D01*
X186769523Y-53952380D02*
X187388571Y-53952380D01*
X187055238Y-54333333D01*
X187198095Y-54333333D01*
X187293333Y-54380952D01*
X187340952Y-54428571D01*
X187388571Y-54523809D01*
X187388571Y-54761904D01*
X187340952Y-54857142D01*
X187293333Y-54904761D01*
X187198095Y-54952380D01*
X186912380Y-54952380D01*
X186817142Y-54904761D01*
X186769523Y-54857142D01*
X187721904Y-54285714D02*
X187960000Y-54952380D01*
X188198095Y-54285714D01*
X188483809Y-53952380D02*
X189102857Y-53952380D01*
X188769523Y-54333333D01*
X188912380Y-54333333D01*
X189007619Y-54380952D01*
X189055238Y-54428571D01*
X189102857Y-54523809D01*
X189102857Y-54761904D01*
X189055238Y-54857142D01*
X189007619Y-54904761D01*
X188912380Y-54952380D01*
X188626666Y-54952380D01*
X188531428Y-54904761D01*
X188483809Y-54857142D01*
%TO.C,J1*%
X129393333Y-106832619D02*
X129393333Y-106118333D01*
X129440952Y-105975476D01*
X129536190Y-105880238D01*
X129679047Y-105832619D01*
X129774285Y-105832619D01*
X128393333Y-105832619D02*
X128964761Y-105832619D01*
X128679047Y-105832619D02*
X128679047Y-106832619D01*
X128774285Y-106689761D01*
X128869523Y-106594523D01*
X128964761Y-106546904D01*
%TO.C,TP2*%
X153238095Y-85707380D02*
X153809523Y-85707380D01*
X153523809Y-86707380D02*
X153523809Y-85707380D01*
X154142857Y-86707380D02*
X154142857Y-85707380D01*
X154523809Y-85707380D01*
X154619047Y-85755000D01*
X154666666Y-85802619D01*
X154714285Y-85897857D01*
X154714285Y-86040714D01*
X154666666Y-86135952D01*
X154619047Y-86183571D01*
X154523809Y-86231190D01*
X154142857Y-86231190D01*
X155095238Y-85802619D02*
X155142857Y-85755000D01*
X155238095Y-85707380D01*
X155476190Y-85707380D01*
X155571428Y-85755000D01*
X155619047Y-85802619D01*
X155666666Y-85897857D01*
X155666666Y-85993095D01*
X155619047Y-86135952D01*
X155047619Y-86707380D01*
X155666666Y-86707380D01*
%TO.C,R5*%
X132333333Y-85452380D02*
X132000000Y-84976190D01*
X131761904Y-85452380D02*
X131761904Y-84452380D01*
X132142857Y-84452380D01*
X132238095Y-84500000D01*
X132285714Y-84547619D01*
X132333333Y-84642857D01*
X132333333Y-84785714D01*
X132285714Y-84880952D01*
X132238095Y-84928571D01*
X132142857Y-84976190D01*
X131761904Y-84976190D01*
X133238095Y-84452380D02*
X132761904Y-84452380D01*
X132714285Y-84928571D01*
X132761904Y-84880952D01*
X132857142Y-84833333D01*
X133095238Y-84833333D01*
X133190476Y-84880952D01*
X133238095Y-84928571D01*
X133285714Y-85023809D01*
X133285714Y-85261904D01*
X133238095Y-85357142D01*
X133190476Y-85404761D01*
X133095238Y-85452380D01*
X132857142Y-85452380D01*
X132761904Y-85404761D01*
X132714285Y-85357142D01*
%TO.C,C9*%
X134857142Y-54450433D02*
X134904761Y-54498052D01*
X134952380Y-54640909D01*
X134952380Y-54736147D01*
X134904761Y-54879005D01*
X134809523Y-54974243D01*
X134714285Y-55021862D01*
X134523809Y-55069481D01*
X134380952Y-55069481D01*
X134190476Y-55021862D01*
X134095238Y-54974243D01*
X134000000Y-54879005D01*
X133952380Y-54736147D01*
X133952380Y-54640909D01*
X134000000Y-54498052D01*
X134047619Y-54450433D01*
X134952380Y-53974243D02*
X134952380Y-53783767D01*
X134904761Y-53688528D01*
X134857142Y-53640909D01*
X134714285Y-53545671D01*
X134523809Y-53498052D01*
X134142857Y-53498052D01*
X134047619Y-53545671D01*
X134000000Y-53593290D01*
X133952380Y-53688528D01*
X133952380Y-53879005D01*
X134000000Y-53974243D01*
X134047619Y-54021862D01*
X134142857Y-54069481D01*
X134380952Y-54069481D01*
X134476190Y-54021862D01*
X134523809Y-53974243D01*
X134571428Y-53879005D01*
X134571428Y-53688528D01*
X134523809Y-53593290D01*
X134476190Y-53545671D01*
X134380952Y-53498052D01*
%TO.C,C8*%
X150833333Y-69927142D02*
X150785714Y-69974761D01*
X150642857Y-70022380D01*
X150547619Y-70022380D01*
X150404761Y-69974761D01*
X150309523Y-69879523D01*
X150261904Y-69784285D01*
X150214285Y-69593809D01*
X150214285Y-69450952D01*
X150261904Y-69260476D01*
X150309523Y-69165238D01*
X150404761Y-69070000D01*
X150547619Y-69022380D01*
X150642857Y-69022380D01*
X150785714Y-69070000D01*
X150833333Y-69117619D01*
X151404761Y-69450952D02*
X151309523Y-69403333D01*
X151261904Y-69355714D01*
X151214285Y-69260476D01*
X151214285Y-69212857D01*
X151261904Y-69117619D01*
X151309523Y-69070000D01*
X151404761Y-69022380D01*
X151595238Y-69022380D01*
X151690476Y-69070000D01*
X151738095Y-69117619D01*
X151785714Y-69212857D01*
X151785714Y-69260476D01*
X151738095Y-69355714D01*
X151690476Y-69403333D01*
X151595238Y-69450952D01*
X151404761Y-69450952D01*
X151309523Y-69498571D01*
X151261904Y-69546190D01*
X151214285Y-69641428D01*
X151214285Y-69831904D01*
X151261904Y-69927142D01*
X151309523Y-69974761D01*
X151404761Y-70022380D01*
X151595238Y-70022380D01*
X151690476Y-69974761D01*
X151738095Y-69927142D01*
X151785714Y-69831904D01*
X151785714Y-69641428D01*
X151738095Y-69546190D01*
X151690476Y-69498571D01*
X151595238Y-69450952D01*
%TO.C,TP3*%
X187452380Y-83261904D02*
X187452380Y-82690476D01*
X188452380Y-82976190D02*
X187452380Y-82976190D01*
X188452380Y-82357142D02*
X187452380Y-82357142D01*
X187452380Y-81976190D01*
X187500000Y-81880952D01*
X187547619Y-81833333D01*
X187642857Y-81785714D01*
X187785714Y-81785714D01*
X187880952Y-81833333D01*
X187928571Y-81880952D01*
X187976190Y-81976190D01*
X187976190Y-82357142D01*
X187452380Y-81452380D02*
X187452380Y-80833333D01*
X187833333Y-81166666D01*
X187833333Y-81023809D01*
X187880952Y-80928571D01*
X187928571Y-80880952D01*
X188023809Y-80833333D01*
X188261904Y-80833333D01*
X188357142Y-80880952D01*
X188404761Y-80928571D01*
X188452380Y-81023809D01*
X188452380Y-81309523D01*
X188404761Y-81404761D01*
X188357142Y-81452380D01*
%TO.C,JP1*%
X123166666Y-102282380D02*
X123166666Y-102996666D01*
X123119047Y-103139523D01*
X123023809Y-103234761D01*
X122880952Y-103282380D01*
X122785714Y-103282380D01*
X123642857Y-103282380D02*
X123642857Y-102282380D01*
X124023809Y-102282380D01*
X124119047Y-102330000D01*
X124166666Y-102377619D01*
X124214285Y-102472857D01*
X124214285Y-102615714D01*
X124166666Y-102710952D01*
X124119047Y-102758571D01*
X124023809Y-102806190D01*
X123642857Y-102806190D01*
X125166666Y-103282380D02*
X124595238Y-103282380D01*
X124880952Y-103282380D02*
X124880952Y-102282380D01*
X124785714Y-102425238D01*
X124690476Y-102520476D01*
X124595238Y-102568095D01*
%TO.C,C6*%
X150833333Y-77357142D02*
X150785714Y-77404761D01*
X150642857Y-77452380D01*
X150547619Y-77452380D01*
X150404761Y-77404761D01*
X150309523Y-77309523D01*
X150261904Y-77214285D01*
X150214285Y-77023809D01*
X150214285Y-76880952D01*
X150261904Y-76690476D01*
X150309523Y-76595238D01*
X150404761Y-76500000D01*
X150547619Y-76452380D01*
X150642857Y-76452380D01*
X150785714Y-76500000D01*
X150833333Y-76547619D01*
X151690476Y-76452380D02*
X151500000Y-76452380D01*
X151404761Y-76500000D01*
X151357142Y-76547619D01*
X151261904Y-76690476D01*
X151214285Y-76880952D01*
X151214285Y-77261904D01*
X151261904Y-77357142D01*
X151309523Y-77404761D01*
X151404761Y-77452380D01*
X151595238Y-77452380D01*
X151690476Y-77404761D01*
X151738095Y-77357142D01*
X151785714Y-77261904D01*
X151785714Y-77023809D01*
X151738095Y-76928571D01*
X151690476Y-76880952D01*
X151595238Y-76833333D01*
X151404761Y-76833333D01*
X151309523Y-76880952D01*
X151261904Y-76928571D01*
X151214285Y-77023809D01*
%TO.C,R1*%
X149522380Y-86754166D02*
X149046190Y-87087500D01*
X149522380Y-87325595D02*
X148522380Y-87325595D01*
X148522380Y-86944642D01*
X148570000Y-86849404D01*
X148617619Y-86801785D01*
X148712857Y-86754166D01*
X148855714Y-86754166D01*
X148950952Y-86801785D01*
X148998571Y-86849404D01*
X149046190Y-86944642D01*
X149046190Y-87325595D01*
X149522380Y-85801785D02*
X149522380Y-86373214D01*
X149522380Y-86087500D02*
X148522380Y-86087500D01*
X148665238Y-86182738D01*
X148760476Y-86277976D01*
X148808095Y-86373214D01*
%TO.C,C7*%
X115420833Y-82357142D02*
X115373214Y-82404761D01*
X115230357Y-82452380D01*
X115135119Y-82452380D01*
X114992261Y-82404761D01*
X114897023Y-82309523D01*
X114849404Y-82214285D01*
X114801785Y-82023809D01*
X114801785Y-81880952D01*
X114849404Y-81690476D01*
X114897023Y-81595238D01*
X114992261Y-81500000D01*
X115135119Y-81452380D01*
X115230357Y-81452380D01*
X115373214Y-81500000D01*
X115420833Y-81547619D01*
X115754166Y-81452380D02*
X116420833Y-81452380D01*
X115992261Y-82452380D01*
%TO.C,R12*%
X135357142Y-102952380D02*
X135023809Y-102476190D01*
X134785714Y-102952380D02*
X134785714Y-101952380D01*
X135166666Y-101952380D01*
X135261904Y-102000000D01*
X135309523Y-102047619D01*
X135357142Y-102142857D01*
X135357142Y-102285714D01*
X135309523Y-102380952D01*
X135261904Y-102428571D01*
X135166666Y-102476190D01*
X134785714Y-102476190D01*
X136309523Y-102952380D02*
X135738095Y-102952380D01*
X136023809Y-102952380D02*
X136023809Y-101952380D01*
X135928571Y-102095238D01*
X135833333Y-102190476D01*
X135738095Y-102238095D01*
X136690476Y-102047619D02*
X136738095Y-102000000D01*
X136833333Y-101952380D01*
X137071428Y-101952380D01*
X137166666Y-102000000D01*
X137214285Y-102047619D01*
X137261904Y-102142857D01*
X137261904Y-102238095D01*
X137214285Y-102380952D01*
X136642857Y-102952380D01*
X137261904Y-102952380D01*
%TO.C,R14*%
X136952380Y-69142857D02*
X136476190Y-69476190D01*
X136952380Y-69714285D02*
X135952380Y-69714285D01*
X135952380Y-69333333D01*
X136000000Y-69238095D01*
X136047619Y-69190476D01*
X136142857Y-69142857D01*
X136285714Y-69142857D01*
X136380952Y-69190476D01*
X136428571Y-69238095D01*
X136476190Y-69333333D01*
X136476190Y-69714285D01*
X136952380Y-68190476D02*
X136952380Y-68761904D01*
X136952380Y-68476190D02*
X135952380Y-68476190D01*
X136095238Y-68571428D01*
X136190476Y-68666666D01*
X136238095Y-68761904D01*
X136285714Y-67333333D02*
X136952380Y-67333333D01*
X135904761Y-67571428D02*
X136619047Y-67809523D01*
X136619047Y-67190476D01*
%TO.C,C2*%
X135833333Y-97927142D02*
X135785714Y-97974761D01*
X135642857Y-98022380D01*
X135547619Y-98022380D01*
X135404761Y-97974761D01*
X135309523Y-97879523D01*
X135261904Y-97784285D01*
X135214285Y-97593809D01*
X135214285Y-97450952D01*
X135261904Y-97260476D01*
X135309523Y-97165238D01*
X135404761Y-97070000D01*
X135547619Y-97022380D01*
X135642857Y-97022380D01*
X135785714Y-97070000D01*
X135833333Y-97117619D01*
X136214285Y-97117619D02*
X136261904Y-97070000D01*
X136357142Y-97022380D01*
X136595238Y-97022380D01*
X136690476Y-97070000D01*
X136738095Y-97117619D01*
X136785714Y-97212857D01*
X136785714Y-97308095D01*
X136738095Y-97450952D01*
X136166666Y-98022380D01*
X136785714Y-98022380D01*
%TO.C,R19*%
X154807142Y-121352380D02*
X154473809Y-120876190D01*
X154235714Y-121352380D02*
X154235714Y-120352380D01*
X154616666Y-120352380D01*
X154711904Y-120400000D01*
X154759523Y-120447619D01*
X154807142Y-120542857D01*
X154807142Y-120685714D01*
X154759523Y-120780952D01*
X154711904Y-120828571D01*
X154616666Y-120876190D01*
X154235714Y-120876190D01*
X155759523Y-121352380D02*
X155188095Y-121352380D01*
X155473809Y-121352380D02*
X155473809Y-120352380D01*
X155378571Y-120495238D01*
X155283333Y-120590476D01*
X155188095Y-120638095D01*
X156235714Y-121352380D02*
X156426190Y-121352380D01*
X156521428Y-121304761D01*
X156569047Y-121257142D01*
X156664285Y-121114285D01*
X156711904Y-120923809D01*
X156711904Y-120542857D01*
X156664285Y-120447619D01*
X156616666Y-120400000D01*
X156521428Y-120352380D01*
X156330952Y-120352380D01*
X156235714Y-120400000D01*
X156188095Y-120447619D01*
X156140476Y-120542857D01*
X156140476Y-120780952D01*
X156188095Y-120876190D01*
X156235714Y-120923809D01*
X156330952Y-120971428D01*
X156521428Y-120971428D01*
X156616666Y-120923809D01*
X156664285Y-120876190D01*
X156711904Y-120780952D01*
%TO.C,R9*%
X110882380Y-93166666D02*
X110406190Y-93500000D01*
X110882380Y-93738095D02*
X109882380Y-93738095D01*
X109882380Y-93357142D01*
X109930000Y-93261904D01*
X109977619Y-93214285D01*
X110072857Y-93166666D01*
X110215714Y-93166666D01*
X110310952Y-93214285D01*
X110358571Y-93261904D01*
X110406190Y-93357142D01*
X110406190Y-93738095D01*
X110882380Y-92690476D02*
X110882380Y-92500000D01*
X110834761Y-92404761D01*
X110787142Y-92357142D01*
X110644285Y-92261904D01*
X110453809Y-92214285D01*
X110072857Y-92214285D01*
X109977619Y-92261904D01*
X109930000Y-92309523D01*
X109882380Y-92404761D01*
X109882380Y-92595238D01*
X109930000Y-92690476D01*
X109977619Y-92738095D01*
X110072857Y-92785714D01*
X110310952Y-92785714D01*
X110406190Y-92738095D01*
X110453809Y-92690476D01*
X110501428Y-92595238D01*
X110501428Y-92404761D01*
X110453809Y-92309523D01*
X110406190Y-92261904D01*
X110310952Y-92214285D01*
%TO.C,R15*%
X142269642Y-68952380D02*
X141936309Y-68476190D01*
X141698214Y-68952380D02*
X141698214Y-67952380D01*
X142079166Y-67952380D01*
X142174404Y-68000000D01*
X142222023Y-68047619D01*
X142269642Y-68142857D01*
X142269642Y-68285714D01*
X142222023Y-68380952D01*
X142174404Y-68428571D01*
X142079166Y-68476190D01*
X141698214Y-68476190D01*
X143222023Y-68952380D02*
X142650595Y-68952380D01*
X142936309Y-68952380D02*
X142936309Y-67952380D01*
X142841071Y-68095238D01*
X142745833Y-68190476D01*
X142650595Y-68238095D01*
X144126785Y-67952380D02*
X143650595Y-67952380D01*
X143602976Y-68428571D01*
X143650595Y-68380952D01*
X143745833Y-68333333D01*
X143983928Y-68333333D01*
X144079166Y-68380952D01*
X144126785Y-68428571D01*
X144174404Y-68523809D01*
X144174404Y-68761904D01*
X144126785Y-68857142D01*
X144079166Y-68904761D01*
X143983928Y-68952380D01*
X143745833Y-68952380D01*
X143650595Y-68904761D01*
X143602976Y-68857142D01*
%TO.C,U2*%
X142598095Y-81002380D02*
X142598095Y-81811904D01*
X142645714Y-81907142D01*
X142693333Y-81954761D01*
X142788571Y-82002380D01*
X142979047Y-82002380D01*
X143074285Y-81954761D01*
X143121904Y-81907142D01*
X143169523Y-81811904D01*
X143169523Y-81002380D01*
X143598095Y-81097619D02*
X143645714Y-81050000D01*
X143740952Y-81002380D01*
X143979047Y-81002380D01*
X144074285Y-81050000D01*
X144121904Y-81097619D01*
X144169523Y-81192857D01*
X144169523Y-81288095D01*
X144121904Y-81430952D01*
X143550476Y-82002380D01*
X144169523Y-82002380D01*
%TO.C,J2*%
X107253333Y-106832619D02*
X107253333Y-106118333D01*
X107300952Y-105975476D01*
X107396190Y-105880238D01*
X107539047Y-105832619D01*
X107634285Y-105832619D01*
X106824761Y-106737380D02*
X106777142Y-106785000D01*
X106681904Y-106832619D01*
X106443809Y-106832619D01*
X106348571Y-106785000D01*
X106300952Y-106737380D01*
X106253333Y-106642142D01*
X106253333Y-106546904D01*
X106300952Y-106404047D01*
X106872380Y-105832619D01*
X106253333Y-105832619D01*
%TO.C,D1*%
X122761904Y-76552380D02*
X122761904Y-75552380D01*
X123000000Y-75552380D01*
X123142857Y-75600000D01*
X123238095Y-75695238D01*
X123285714Y-75790476D01*
X123333333Y-75980952D01*
X123333333Y-76123809D01*
X123285714Y-76314285D01*
X123238095Y-76409523D01*
X123142857Y-76504761D01*
X123000000Y-76552380D01*
X122761904Y-76552380D01*
X124285714Y-76552380D02*
X123714285Y-76552380D01*
X124000000Y-76552380D02*
X124000000Y-75552380D01*
X123904761Y-75695238D01*
X123809523Y-75790476D01*
X123714285Y-75838095D01*
%TO.C,Q5*%
X148404761Y-65147619D02*
X148309523Y-65100000D01*
X148214285Y-65004761D01*
X148071428Y-64861904D01*
X147976190Y-64814285D01*
X147880952Y-64814285D01*
X147928571Y-65052380D02*
X147833333Y-65004761D01*
X147738095Y-64909523D01*
X147690476Y-64719047D01*
X147690476Y-64385714D01*
X147738095Y-64195238D01*
X147833333Y-64100000D01*
X147928571Y-64052380D01*
X148119047Y-64052380D01*
X148214285Y-64100000D01*
X148309523Y-64195238D01*
X148357142Y-64385714D01*
X148357142Y-64719047D01*
X148309523Y-64909523D01*
X148214285Y-65004761D01*
X148119047Y-65052380D01*
X147928571Y-65052380D01*
X149261904Y-64052380D02*
X148785714Y-64052380D01*
X148738095Y-64528571D01*
X148785714Y-64480952D01*
X148880952Y-64433333D01*
X149119047Y-64433333D01*
X149214285Y-64480952D01*
X149261904Y-64528571D01*
X149309523Y-64623809D01*
X149309523Y-64861904D01*
X149261904Y-64957142D01*
X149214285Y-65004761D01*
X149119047Y-65052380D01*
X148880952Y-65052380D01*
X148785714Y-65004761D01*
X148738095Y-64957142D01*
%TO.C,Q2*%
X115947619Y-88595238D02*
X115900000Y-88690476D01*
X115804761Y-88785714D01*
X115661904Y-88928571D01*
X115614285Y-89023809D01*
X115614285Y-89119047D01*
X115852380Y-89071428D02*
X115804761Y-89166666D01*
X115709523Y-89261904D01*
X115519047Y-89309523D01*
X115185714Y-89309523D01*
X114995238Y-89261904D01*
X114900000Y-89166666D01*
X114852380Y-89071428D01*
X114852380Y-88880952D01*
X114900000Y-88785714D01*
X114995238Y-88690476D01*
X115185714Y-88642857D01*
X115519047Y-88642857D01*
X115709523Y-88690476D01*
X115804761Y-88785714D01*
X115852380Y-88880952D01*
X115852380Y-89071428D01*
X114947619Y-88261904D02*
X114900000Y-88214285D01*
X114852380Y-88119047D01*
X114852380Y-87880952D01*
X114900000Y-87785714D01*
X114947619Y-87738095D01*
X115042857Y-87690476D01*
X115138095Y-87690476D01*
X115280952Y-87738095D01*
X115852380Y-88309523D01*
X115852380Y-87690476D01*
%TO.C,SW1*%
X141566666Y-54304761D02*
X141709523Y-54352380D01*
X141947619Y-54352380D01*
X142042857Y-54304761D01*
X142090476Y-54257142D01*
X142138095Y-54161904D01*
X142138095Y-54066666D01*
X142090476Y-53971428D01*
X142042857Y-53923809D01*
X141947619Y-53876190D01*
X141757142Y-53828571D01*
X141661904Y-53780952D01*
X141614285Y-53733333D01*
X141566666Y-53638095D01*
X141566666Y-53542857D01*
X141614285Y-53447619D01*
X141661904Y-53400000D01*
X141757142Y-53352380D01*
X141995238Y-53352380D01*
X142138095Y-53400000D01*
X142471428Y-53352380D02*
X142709523Y-54352380D01*
X142900000Y-53638095D01*
X143090476Y-54352380D01*
X143328571Y-53352380D01*
X144233333Y-54352380D02*
X143661904Y-54352380D01*
X143947619Y-54352380D02*
X143947619Y-53352380D01*
X143852380Y-53495238D01*
X143757142Y-53590476D01*
X143661904Y-53638095D01*
%TO.C,U5*%
X128984095Y-71952380D02*
X128984095Y-72761904D01*
X129031714Y-72857142D01*
X129079333Y-72904761D01*
X129174571Y-72952380D01*
X129365047Y-72952380D01*
X129460285Y-72904761D01*
X129507904Y-72857142D01*
X129555523Y-72761904D01*
X129555523Y-71952380D01*
X130507904Y-71952380D02*
X130031714Y-71952380D01*
X129984095Y-72428571D01*
X130031714Y-72380952D01*
X130126952Y-72333333D01*
X130365047Y-72333333D01*
X130460285Y-72380952D01*
X130507904Y-72428571D01*
X130555523Y-72523809D01*
X130555523Y-72761904D01*
X130507904Y-72857142D01*
X130460285Y-72904761D01*
X130365047Y-72952380D01*
X130126952Y-72952380D01*
X130031714Y-72904761D01*
X129984095Y-72857142D01*
%TO.C,C5*%
X121333333Y-82357142D02*
X121285714Y-82404761D01*
X121142857Y-82452380D01*
X121047619Y-82452380D01*
X120904761Y-82404761D01*
X120809523Y-82309523D01*
X120761904Y-82214285D01*
X120714285Y-82023809D01*
X120714285Y-81880952D01*
X120761904Y-81690476D01*
X120809523Y-81595238D01*
X120904761Y-81500000D01*
X121047619Y-81452380D01*
X121142857Y-81452380D01*
X121285714Y-81500000D01*
X121333333Y-81547619D01*
X122238095Y-81452380D02*
X121761904Y-81452380D01*
X121714285Y-81928571D01*
X121761904Y-81880952D01*
X121857142Y-81833333D01*
X122095238Y-81833333D01*
X122190476Y-81880952D01*
X122238095Y-81928571D01*
X122285714Y-82023809D01*
X122285714Y-82261904D01*
X122238095Y-82357142D01*
X122190476Y-82404761D01*
X122095238Y-82452380D01*
X121857142Y-82452380D01*
X121761904Y-82404761D01*
X121714285Y-82357142D01*
%TO.C,J3*%
X152666666Y-53452380D02*
X152666666Y-54166666D01*
X152619047Y-54309523D01*
X152523809Y-54404761D01*
X152380952Y-54452380D01*
X152285714Y-54452380D01*
X153047619Y-53452380D02*
X153666666Y-53452380D01*
X153333333Y-53833333D01*
X153476190Y-53833333D01*
X153571428Y-53880952D01*
X153619047Y-53928571D01*
X153666666Y-54023809D01*
X153666666Y-54261904D01*
X153619047Y-54357142D01*
X153571428Y-54404761D01*
X153476190Y-54452380D01*
X153190476Y-54452380D01*
X153095238Y-54404761D01*
X153047619Y-54357142D01*
%TO.C,JP3*%
X108166666Y-102057380D02*
X108166666Y-102771666D01*
X108119047Y-102914523D01*
X108023809Y-103009761D01*
X107880952Y-103057380D01*
X107785714Y-103057380D01*
X108642857Y-103057380D02*
X108642857Y-102057380D01*
X109023809Y-102057380D01*
X109119047Y-102105000D01*
X109166666Y-102152619D01*
X109214285Y-102247857D01*
X109214285Y-102390714D01*
X109166666Y-102485952D01*
X109119047Y-102533571D01*
X109023809Y-102581190D01*
X108642857Y-102581190D01*
X109547619Y-102057380D02*
X110166666Y-102057380D01*
X109833333Y-102438333D01*
X109976190Y-102438333D01*
X110071428Y-102485952D01*
X110119047Y-102533571D01*
X110166666Y-102628809D01*
X110166666Y-102866904D01*
X110119047Y-102962142D01*
X110071428Y-103009761D01*
X109976190Y-103057380D01*
X109690476Y-103057380D01*
X109595238Y-103009761D01*
X109547619Y-102962142D01*
%TO.C,Q4*%
X118147619Y-88545238D02*
X118100000Y-88640476D01*
X118004761Y-88735714D01*
X117861904Y-88878571D01*
X117814285Y-88973809D01*
X117814285Y-89069047D01*
X118052380Y-89021428D02*
X118004761Y-89116666D01*
X117909523Y-89211904D01*
X117719047Y-89259523D01*
X117385714Y-89259523D01*
X117195238Y-89211904D01*
X117100000Y-89116666D01*
X117052380Y-89021428D01*
X117052380Y-88830952D01*
X117100000Y-88735714D01*
X117195238Y-88640476D01*
X117385714Y-88592857D01*
X117719047Y-88592857D01*
X117909523Y-88640476D01*
X118004761Y-88735714D01*
X118052380Y-88830952D01*
X118052380Y-89021428D01*
X117385714Y-87735714D02*
X118052380Y-87735714D01*
X117004761Y-87973809D02*
X117719047Y-88211904D01*
X117719047Y-87592857D01*
%TO.C,R18*%
X144357142Y-63452380D02*
X144023809Y-62976190D01*
X143785714Y-63452380D02*
X143785714Y-62452380D01*
X144166666Y-62452380D01*
X144261904Y-62500000D01*
X144309523Y-62547619D01*
X144357142Y-62642857D01*
X144357142Y-62785714D01*
X144309523Y-62880952D01*
X144261904Y-62928571D01*
X144166666Y-62976190D01*
X143785714Y-62976190D01*
X145309523Y-63452380D02*
X144738095Y-63452380D01*
X145023809Y-63452380D02*
X145023809Y-62452380D01*
X144928571Y-62595238D01*
X144833333Y-62690476D01*
X144738095Y-62738095D01*
X145880952Y-62880952D02*
X145785714Y-62833333D01*
X145738095Y-62785714D01*
X145690476Y-62690476D01*
X145690476Y-62642857D01*
X145738095Y-62547619D01*
X145785714Y-62500000D01*
X145880952Y-62452380D01*
X146071428Y-62452380D01*
X146166666Y-62500000D01*
X146214285Y-62547619D01*
X146261904Y-62642857D01*
X146261904Y-62690476D01*
X146214285Y-62785714D01*
X146166666Y-62833333D01*
X146071428Y-62880952D01*
X145880952Y-62880952D01*
X145785714Y-62928571D01*
X145738095Y-62976190D01*
X145690476Y-63071428D01*
X145690476Y-63261904D01*
X145738095Y-63357142D01*
X145785714Y-63404761D01*
X145880952Y-63452380D01*
X146071428Y-63452380D01*
X146166666Y-63404761D01*
X146214285Y-63357142D01*
X146261904Y-63261904D01*
X146261904Y-63071428D01*
X146214285Y-62976190D01*
X146166666Y-62928571D01*
X146071428Y-62880952D01*
%TO.C,R8*%
X114952380Y-93166666D02*
X114476190Y-93500000D01*
X114952380Y-93738095D02*
X113952380Y-93738095D01*
X113952380Y-93357142D01*
X114000000Y-93261904D01*
X114047619Y-93214285D01*
X114142857Y-93166666D01*
X114285714Y-93166666D01*
X114380952Y-93214285D01*
X114428571Y-93261904D01*
X114476190Y-93357142D01*
X114476190Y-93738095D01*
X114380952Y-92595238D02*
X114333333Y-92690476D01*
X114285714Y-92738095D01*
X114190476Y-92785714D01*
X114142857Y-92785714D01*
X114047619Y-92738095D01*
X114000000Y-92690476D01*
X113952380Y-92595238D01*
X113952380Y-92404761D01*
X114000000Y-92309523D01*
X114047619Y-92261904D01*
X114142857Y-92214285D01*
X114190476Y-92214285D01*
X114285714Y-92261904D01*
X114333333Y-92309523D01*
X114380952Y-92404761D01*
X114380952Y-92595238D01*
X114428571Y-92690476D01*
X114476190Y-92738095D01*
X114571428Y-92785714D01*
X114761904Y-92785714D01*
X114857142Y-92738095D01*
X114904761Y-92690476D01*
X114952380Y-92595238D01*
X114952380Y-92404761D01*
X114904761Y-92309523D01*
X114857142Y-92261904D01*
X114761904Y-92214285D01*
X114571428Y-92214285D01*
X114476190Y-92261904D01*
X114428571Y-92309523D01*
X114380952Y-92404761D01*
%TO.C,R20*%
X160302380Y-122342857D02*
X159826190Y-122676190D01*
X160302380Y-122914285D02*
X159302380Y-122914285D01*
X159302380Y-122533333D01*
X159350000Y-122438095D01*
X159397619Y-122390476D01*
X159492857Y-122342857D01*
X159635714Y-122342857D01*
X159730952Y-122390476D01*
X159778571Y-122438095D01*
X159826190Y-122533333D01*
X159826190Y-122914285D01*
X159397619Y-121961904D02*
X159350000Y-121914285D01*
X159302380Y-121819047D01*
X159302380Y-121580952D01*
X159350000Y-121485714D01*
X159397619Y-121438095D01*
X159492857Y-121390476D01*
X159588095Y-121390476D01*
X159730952Y-121438095D01*
X160302380Y-122009523D01*
X160302380Y-121390476D01*
X159302380Y-120771428D02*
X159302380Y-120676190D01*
X159350000Y-120580952D01*
X159397619Y-120533333D01*
X159492857Y-120485714D01*
X159683333Y-120438095D01*
X159921428Y-120438095D01*
X160111904Y-120485714D01*
X160207142Y-120533333D01*
X160254761Y-120580952D01*
X160302380Y-120676190D01*
X160302380Y-120771428D01*
X160254761Y-120866666D01*
X160207142Y-120914285D01*
X160111904Y-120961904D01*
X159921428Y-121009523D01*
X159683333Y-121009523D01*
X159492857Y-120961904D01*
X159397619Y-120914285D01*
X159350000Y-120866666D01*
X159302380Y-120771428D01*
%TO.C,C4*%
X117833333Y-72927142D02*
X117785714Y-72974761D01*
X117642857Y-73022380D01*
X117547619Y-73022380D01*
X117404761Y-72974761D01*
X117309523Y-72879523D01*
X117261904Y-72784285D01*
X117214285Y-72593809D01*
X117214285Y-72450952D01*
X117261904Y-72260476D01*
X117309523Y-72165238D01*
X117404761Y-72070000D01*
X117547619Y-72022380D01*
X117642857Y-72022380D01*
X117785714Y-72070000D01*
X117833333Y-72117619D01*
X118690476Y-72355714D02*
X118690476Y-73022380D01*
X118452380Y-71974761D02*
X118214285Y-72689047D01*
X118833333Y-72689047D01*
%TO.C,J5*%
X187666666Y-123952380D02*
X187666666Y-124666666D01*
X187619047Y-124809523D01*
X187523809Y-124904761D01*
X187380952Y-124952380D01*
X187285714Y-124952380D01*
X188619047Y-123952380D02*
X188142857Y-123952380D01*
X188095238Y-124428571D01*
X188142857Y-124380952D01*
X188238095Y-124333333D01*
X188476190Y-124333333D01*
X188571428Y-124380952D01*
X188619047Y-124428571D01*
X188666666Y-124523809D01*
X188666666Y-124761904D01*
X188619047Y-124857142D01*
X188571428Y-124904761D01*
X188476190Y-124952380D01*
X188238095Y-124952380D01*
X188142857Y-124904761D01*
X188095238Y-124857142D01*
%TO.C,R10*%
X119044880Y-93867857D02*
X118568690Y-94201190D01*
X119044880Y-94439285D02*
X118044880Y-94439285D01*
X118044880Y-94058333D01*
X118092500Y-93963095D01*
X118140119Y-93915476D01*
X118235357Y-93867857D01*
X118378214Y-93867857D01*
X118473452Y-93915476D01*
X118521071Y-93963095D01*
X118568690Y-94058333D01*
X118568690Y-94439285D01*
X119044880Y-92915476D02*
X119044880Y-93486904D01*
X119044880Y-93201190D02*
X118044880Y-93201190D01*
X118187738Y-93296428D01*
X118282976Y-93391666D01*
X118330595Y-93486904D01*
X118044880Y-92296428D02*
X118044880Y-92201190D01*
X118092500Y-92105952D01*
X118140119Y-92058333D01*
X118235357Y-92010714D01*
X118425833Y-91963095D01*
X118663928Y-91963095D01*
X118854404Y-92010714D01*
X118949642Y-92058333D01*
X118997261Y-92105952D01*
X119044880Y-92201190D01*
X119044880Y-92296428D01*
X118997261Y-92391666D01*
X118949642Y-92439285D01*
X118854404Y-92486904D01*
X118663928Y-92534523D01*
X118425833Y-92534523D01*
X118235357Y-92486904D01*
X118140119Y-92439285D01*
X118092500Y-92391666D01*
X118044880Y-92296428D01*
%TO.C,JP4*%
X112166666Y-102057380D02*
X112166666Y-102771666D01*
X112119047Y-102914523D01*
X112023809Y-103009761D01*
X111880952Y-103057380D01*
X111785714Y-103057380D01*
X112642857Y-103057380D02*
X112642857Y-102057380D01*
X113023809Y-102057380D01*
X113119047Y-102105000D01*
X113166666Y-102152619D01*
X113214285Y-102247857D01*
X113214285Y-102390714D01*
X113166666Y-102485952D01*
X113119047Y-102533571D01*
X113023809Y-102581190D01*
X112642857Y-102581190D01*
X114071428Y-102390714D02*
X114071428Y-103057380D01*
X113833333Y-102009761D02*
X113595238Y-102724047D01*
X114214285Y-102724047D01*
%TO.C,U4*%
X170688095Y-52792380D02*
X170688095Y-53601904D01*
X170735714Y-53697142D01*
X170783333Y-53744761D01*
X170878571Y-53792380D01*
X171069047Y-53792380D01*
X171164285Y-53744761D01*
X171211904Y-53697142D01*
X171259523Y-53601904D01*
X171259523Y-52792380D01*
X172164285Y-53125714D02*
X172164285Y-53792380D01*
X171926190Y-52744761D02*
X171688095Y-53459047D01*
X172307142Y-53459047D01*
X158814857Y-52766380D02*
X158814857Y-53575904D01*
X158862476Y-53671142D01*
X158910095Y-53718761D01*
X159005333Y-53766380D01*
X159195809Y-53766380D01*
X159291047Y-53718761D01*
X159338666Y-53671142D01*
X159386285Y-53575904D01*
X159386285Y-52766380D01*
X159862476Y-53099714D02*
X159862476Y-54099714D01*
X159862476Y-53147333D02*
X159957714Y-53099714D01*
X160148190Y-53099714D01*
X160243428Y-53147333D01*
X160291047Y-53194952D01*
X160338666Y-53290190D01*
X160338666Y-53575904D01*
X160291047Y-53671142D01*
X160243428Y-53718761D01*
X160148190Y-53766380D01*
X159957714Y-53766380D01*
X159862476Y-53718761D01*
X161195809Y-53766380D02*
X161195809Y-52766380D01*
X161195809Y-53718761D02*
X161100571Y-53766380D01*
X160910095Y-53766380D01*
X160814857Y-53718761D01*
X160767238Y-53671142D01*
X160719619Y-53575904D01*
X160719619Y-53290190D01*
X160767238Y-53194952D01*
X160814857Y-53147333D01*
X160910095Y-53099714D01*
X161100571Y-53099714D01*
X161195809Y-53147333D01*
X162100571Y-53099714D02*
X162100571Y-53766380D01*
X161672000Y-53099714D02*
X161672000Y-53623523D01*
X161719619Y-53718761D01*
X161814857Y-53766380D01*
X161957714Y-53766380D01*
X162052952Y-53718761D01*
X162100571Y-53671142D01*
X162576761Y-53766380D02*
X162576761Y-53099714D01*
X162576761Y-52766380D02*
X162529142Y-52814000D01*
X162576761Y-52861619D01*
X162624380Y-52814000D01*
X162576761Y-52766380D01*
X162576761Y-52861619D01*
X163052952Y-53099714D02*
X163052952Y-53766380D01*
X163052952Y-53194952D02*
X163100571Y-53147333D01*
X163195809Y-53099714D01*
X163338666Y-53099714D01*
X163433904Y-53147333D01*
X163481523Y-53242571D01*
X163481523Y-53766380D01*
X164100571Y-53766380D02*
X164005333Y-53718761D01*
X163957714Y-53671142D01*
X163910095Y-53575904D01*
X163910095Y-53290190D01*
X163957714Y-53194952D01*
X164005333Y-53147333D01*
X164100571Y-53099714D01*
X164243428Y-53099714D01*
X164338666Y-53147333D01*
X164386285Y-53194952D01*
X164433904Y-53290190D01*
X164433904Y-53575904D01*
X164386285Y-53671142D01*
X164338666Y-53718761D01*
X164243428Y-53766380D01*
X164100571Y-53766380D01*
X165529142Y-52766380D02*
X166148190Y-52766380D01*
X165814857Y-53147333D01*
X165957714Y-53147333D01*
X166052952Y-53194952D01*
X166100571Y-53242571D01*
X166148190Y-53337809D01*
X166148190Y-53575904D01*
X166100571Y-53671142D01*
X166052952Y-53718761D01*
X165957714Y-53766380D01*
X165672000Y-53766380D01*
X165576761Y-53718761D01*
X165529142Y-53671142D01*
X166576761Y-53671142D02*
X166624380Y-53718761D01*
X166576761Y-53766380D01*
X166529142Y-53718761D01*
X166576761Y-53671142D01*
X166576761Y-53766380D01*
X167576761Y-53766380D02*
X167005333Y-53766380D01*
X167291047Y-53766380D02*
X167291047Y-52766380D01*
X167195809Y-52909238D01*
X167100571Y-53004476D01*
X167005333Y-53052095D01*
%TO.C,Q1*%
X106997619Y-88645238D02*
X106950000Y-88740476D01*
X106854761Y-88835714D01*
X106711904Y-88978571D01*
X106664285Y-89073809D01*
X106664285Y-89169047D01*
X106902380Y-89121428D02*
X106854761Y-89216666D01*
X106759523Y-89311904D01*
X106569047Y-89359523D01*
X106235714Y-89359523D01*
X106045238Y-89311904D01*
X105950000Y-89216666D01*
X105902380Y-89121428D01*
X105902380Y-88930952D01*
X105950000Y-88835714D01*
X106045238Y-88740476D01*
X106235714Y-88692857D01*
X106569047Y-88692857D01*
X106759523Y-88740476D01*
X106854761Y-88835714D01*
X106902380Y-88930952D01*
X106902380Y-89121428D01*
X106902380Y-87740476D02*
X106902380Y-88311904D01*
X106902380Y-88026190D02*
X105902380Y-88026190D01*
X106045238Y-88121428D01*
X106140476Y-88216666D01*
X106188095Y-88311904D01*
%TO.C,R7*%
X125882380Y-93391666D02*
X125406190Y-93725000D01*
X125882380Y-93963095D02*
X124882380Y-93963095D01*
X124882380Y-93582142D01*
X124930000Y-93486904D01*
X124977619Y-93439285D01*
X125072857Y-93391666D01*
X125215714Y-93391666D01*
X125310952Y-93439285D01*
X125358571Y-93486904D01*
X125406190Y-93582142D01*
X125406190Y-93963095D01*
X124882380Y-93058333D02*
X124882380Y-92391666D01*
X125882380Y-92820238D01*
%TO.C,JP2*%
X119166666Y-102282380D02*
X119166666Y-102996666D01*
X119119047Y-103139523D01*
X119023809Y-103234761D01*
X118880952Y-103282380D01*
X118785714Y-103282380D01*
X119642857Y-103282380D02*
X119642857Y-102282380D01*
X120023809Y-102282380D01*
X120119047Y-102330000D01*
X120166666Y-102377619D01*
X120214285Y-102472857D01*
X120214285Y-102615714D01*
X120166666Y-102710952D01*
X120119047Y-102758571D01*
X120023809Y-102806190D01*
X119642857Y-102806190D01*
X120595238Y-102377619D02*
X120642857Y-102330000D01*
X120738095Y-102282380D01*
X120976190Y-102282380D01*
X121071428Y-102330000D01*
X121119047Y-102377619D01*
X121166666Y-102472857D01*
X121166666Y-102568095D01*
X121119047Y-102710952D01*
X120547619Y-103282380D01*
X121166666Y-103282380D01*
%TO.C,J6*%
X181276666Y-52792380D02*
X181276666Y-53506666D01*
X181229047Y-53649523D01*
X181133809Y-53744761D01*
X180990952Y-53792380D01*
X180895714Y-53792380D01*
X182181428Y-52792380D02*
X181990952Y-52792380D01*
X181895714Y-52840000D01*
X181848095Y-52887619D01*
X181752857Y-53030476D01*
X181705238Y-53220952D01*
X181705238Y-53601904D01*
X181752857Y-53697142D01*
X181800476Y-53744761D01*
X181895714Y-53792380D01*
X182086190Y-53792380D01*
X182181428Y-53744761D01*
X182229047Y-53697142D01*
X182276666Y-53601904D01*
X182276666Y-53363809D01*
X182229047Y-53268571D01*
X182181428Y-53220952D01*
X182086190Y-53173333D01*
X181895714Y-53173333D01*
X181800476Y-53220952D01*
X181752857Y-53268571D01*
X181705238Y-53363809D01*
%TO.C,TP4*%
X133738095Y-62122380D02*
X134309523Y-62122380D01*
X134023809Y-63122380D02*
X134023809Y-62122380D01*
X134642857Y-63122380D02*
X134642857Y-62122380D01*
X135023809Y-62122380D01*
X135119047Y-62170000D01*
X135166666Y-62217619D01*
X135214285Y-62312857D01*
X135214285Y-62455714D01*
X135166666Y-62550952D01*
X135119047Y-62598571D01*
X135023809Y-62646190D01*
X134642857Y-62646190D01*
X136071428Y-62455714D02*
X136071428Y-63122380D01*
X135833333Y-62074761D02*
X135595238Y-62789047D01*
X136214285Y-62789047D01*
%TO.C,U1*%
X142738095Y-100502380D02*
X142738095Y-101311904D01*
X142785714Y-101407142D01*
X142833333Y-101454761D01*
X142928571Y-101502380D01*
X143119047Y-101502380D01*
X143214285Y-101454761D01*
X143261904Y-101407142D01*
X143309523Y-101311904D01*
X143309523Y-100502380D01*
X144309523Y-101502380D02*
X143738095Y-101502380D01*
X144023809Y-101502380D02*
X144023809Y-100502380D01*
X143928571Y-100645238D01*
X143833333Y-100740476D01*
X143738095Y-100788095D01*
%TO.C,TP5*%
X138238095Y-100622380D02*
X138809523Y-100622380D01*
X138523809Y-101622380D02*
X138523809Y-100622380D01*
X139142857Y-101622380D02*
X139142857Y-100622380D01*
X139523809Y-100622380D01*
X139619047Y-100670000D01*
X139666666Y-100717619D01*
X139714285Y-100812857D01*
X139714285Y-100955714D01*
X139666666Y-101050952D01*
X139619047Y-101098571D01*
X139523809Y-101146190D01*
X139142857Y-101146190D01*
X140619047Y-100622380D02*
X140142857Y-100622380D01*
X140095238Y-101098571D01*
X140142857Y-101050952D01*
X140238095Y-101003333D01*
X140476190Y-101003333D01*
X140571428Y-101050952D01*
X140619047Y-101098571D01*
X140666666Y-101193809D01*
X140666666Y-101431904D01*
X140619047Y-101527142D01*
X140571428Y-101574761D01*
X140476190Y-101622380D01*
X140238095Y-101622380D01*
X140142857Y-101574761D01*
X140095238Y-101527142D01*
%TO.C,D5*%
X155002380Y-126088095D02*
X154002380Y-126088095D01*
X154002380Y-125850000D01*
X154050000Y-125707142D01*
X154145238Y-125611904D01*
X154240476Y-125564285D01*
X154430952Y-125516666D01*
X154573809Y-125516666D01*
X154764285Y-125564285D01*
X154859523Y-125611904D01*
X154954761Y-125707142D01*
X155002380Y-125850000D01*
X155002380Y-126088095D01*
X154002380Y-124611904D02*
X154002380Y-125088095D01*
X154478571Y-125135714D01*
X154430952Y-125088095D01*
X154383333Y-124992857D01*
X154383333Y-124754761D01*
X154430952Y-124659523D01*
X154478571Y-124611904D01*
X154573809Y-124564285D01*
X154811904Y-124564285D01*
X154907142Y-124611904D01*
X154954761Y-124659523D01*
X155002380Y-124754761D01*
X155002380Y-124992857D01*
X154954761Y-125088095D01*
X154907142Y-125135714D01*
%TO.C,R17*%
X108357142Y-73044880D02*
X108023809Y-72568690D01*
X107785714Y-73044880D02*
X107785714Y-72044880D01*
X108166666Y-72044880D01*
X108261904Y-72092500D01*
X108309523Y-72140119D01*
X108357142Y-72235357D01*
X108357142Y-72378214D01*
X108309523Y-72473452D01*
X108261904Y-72521071D01*
X108166666Y-72568690D01*
X107785714Y-72568690D01*
X109309523Y-73044880D02*
X108738095Y-73044880D01*
X109023809Y-73044880D02*
X109023809Y-72044880D01*
X108928571Y-72187738D01*
X108833333Y-72282976D01*
X108738095Y-72330595D01*
X109642857Y-72044880D02*
X110309523Y-72044880D01*
X109880952Y-73044880D01*
%TO.C,U3*%
X142598095Y-92002380D02*
X142598095Y-92811904D01*
X142645714Y-92907142D01*
X142693333Y-92954761D01*
X142788571Y-93002380D01*
X142979047Y-93002380D01*
X143074285Y-92954761D01*
X143121904Y-92907142D01*
X143169523Y-92811904D01*
X143169523Y-92002380D01*
X143550476Y-92002380D02*
X144169523Y-92002380D01*
X143836190Y-92383333D01*
X143979047Y-92383333D01*
X144074285Y-92430952D01*
X144121904Y-92478571D01*
X144169523Y-92573809D01*
X144169523Y-92811904D01*
X144121904Y-92907142D01*
X144074285Y-92954761D01*
X143979047Y-93002380D01*
X143693333Y-93002380D01*
X143598095Y-92954761D01*
X143550476Y-92907142D01*
%TO.C,R16*%
X142357142Y-66974880D02*
X142023809Y-66498690D01*
X141785714Y-66974880D02*
X141785714Y-65974880D01*
X142166666Y-65974880D01*
X142261904Y-66022500D01*
X142309523Y-66070119D01*
X142357142Y-66165357D01*
X142357142Y-66308214D01*
X142309523Y-66403452D01*
X142261904Y-66451071D01*
X142166666Y-66498690D01*
X141785714Y-66498690D01*
X143309523Y-66974880D02*
X142738095Y-66974880D01*
X143023809Y-66974880D02*
X143023809Y-65974880D01*
X142928571Y-66117738D01*
X142833333Y-66212976D01*
X142738095Y-66260595D01*
X144166666Y-65974880D02*
X143976190Y-65974880D01*
X143880952Y-66022500D01*
X143833333Y-66070119D01*
X143738095Y-66212976D01*
X143690476Y-66403452D01*
X143690476Y-66784404D01*
X143738095Y-66879642D01*
X143785714Y-66927261D01*
X143880952Y-66974880D01*
X144071428Y-66974880D01*
X144166666Y-66927261D01*
X144214285Y-66879642D01*
X144261904Y-66784404D01*
X144261904Y-66546309D01*
X144214285Y-66451071D01*
X144166666Y-66403452D01*
X144071428Y-66355833D01*
X143880952Y-66355833D01*
X143785714Y-66403452D01*
X143738095Y-66451071D01*
X143690476Y-66546309D01*
%TO.C,R4*%
X132333333Y-82952380D02*
X132000000Y-82476190D01*
X131761904Y-82952380D02*
X131761904Y-81952380D01*
X132142857Y-81952380D01*
X132238095Y-82000000D01*
X132285714Y-82047619D01*
X132333333Y-82142857D01*
X132333333Y-82285714D01*
X132285714Y-82380952D01*
X132238095Y-82428571D01*
X132142857Y-82476190D01*
X131761904Y-82476190D01*
X133190476Y-82285714D02*
X133190476Y-82952380D01*
X132952380Y-81904761D02*
X132714285Y-82619047D01*
X133333333Y-82619047D01*
%TO.C,R3*%
X132333333Y-80452380D02*
X132000000Y-79976190D01*
X131761904Y-80452380D02*
X131761904Y-79452380D01*
X132142857Y-79452380D01*
X132238095Y-79500000D01*
X132285714Y-79547619D01*
X132333333Y-79642857D01*
X132333333Y-79785714D01*
X132285714Y-79880952D01*
X132238095Y-79928571D01*
X132142857Y-79976190D01*
X131761904Y-79976190D01*
X132666666Y-79452380D02*
X133285714Y-79452380D01*
X132952380Y-79833333D01*
X133095238Y-79833333D01*
X133190476Y-79880952D01*
X133238095Y-79928571D01*
X133285714Y-80023809D01*
X133285714Y-80261904D01*
X133238095Y-80357142D01*
X133190476Y-80404761D01*
X133095238Y-80452380D01*
X132809523Y-80452380D01*
X132714285Y-80404761D01*
X132666666Y-80357142D01*
%TO.C,R13*%
X134952380Y-69142857D02*
X134476190Y-69476190D01*
X134952380Y-69714285D02*
X133952380Y-69714285D01*
X133952380Y-69333333D01*
X134000000Y-69238095D01*
X134047619Y-69190476D01*
X134142857Y-69142857D01*
X134285714Y-69142857D01*
X134380952Y-69190476D01*
X134428571Y-69238095D01*
X134476190Y-69333333D01*
X134476190Y-69714285D01*
X134952380Y-68190476D02*
X134952380Y-68761904D01*
X134952380Y-68476190D02*
X133952380Y-68476190D01*
X134095238Y-68571428D01*
X134190476Y-68666666D01*
X134238095Y-68761904D01*
X133952380Y-67857142D02*
X133952380Y-67238095D01*
X134333333Y-67571428D01*
X134333333Y-67428571D01*
X134380952Y-67333333D01*
X134428571Y-67285714D01*
X134523809Y-67238095D01*
X134761904Y-67238095D01*
X134857142Y-67285714D01*
X134904761Y-67333333D01*
X134952380Y-67428571D01*
X134952380Y-67714285D01*
X134904761Y-67809523D01*
X134857142Y-67857142D01*
%TO.C,Q3*%
X126947619Y-88595238D02*
X126900000Y-88690476D01*
X126804761Y-88785714D01*
X126661904Y-88928571D01*
X126614285Y-89023809D01*
X126614285Y-89119047D01*
X126852380Y-89071428D02*
X126804761Y-89166666D01*
X126709523Y-89261904D01*
X126519047Y-89309523D01*
X126185714Y-89309523D01*
X125995238Y-89261904D01*
X125900000Y-89166666D01*
X125852380Y-89071428D01*
X125852380Y-88880952D01*
X125900000Y-88785714D01*
X125995238Y-88690476D01*
X126185714Y-88642857D01*
X126519047Y-88642857D01*
X126709523Y-88690476D01*
X126804761Y-88785714D01*
X126852380Y-88880952D01*
X126852380Y-89071428D01*
X125852380Y-88309523D02*
X125852380Y-87690476D01*
X126233333Y-88023809D01*
X126233333Y-87880952D01*
X126280952Y-87785714D01*
X126328571Y-87738095D01*
X126423809Y-87690476D01*
X126661904Y-87690476D01*
X126757142Y-87738095D01*
X126804761Y-87785714D01*
X126852380Y-87880952D01*
X126852380Y-88166666D01*
X126804761Y-88261904D01*
X126757142Y-88309523D01*
%TO.C,C3*%
X113333333Y-72857142D02*
X113285714Y-72904761D01*
X113142857Y-72952380D01*
X113047619Y-72952380D01*
X112904761Y-72904761D01*
X112809523Y-72809523D01*
X112761904Y-72714285D01*
X112714285Y-72523809D01*
X112714285Y-72380952D01*
X112761904Y-72190476D01*
X112809523Y-72095238D01*
X112904761Y-72000000D01*
X113047619Y-71952380D01*
X113142857Y-71952380D01*
X113285714Y-72000000D01*
X113333333Y-72047619D01*
X113666666Y-71952380D02*
X114285714Y-71952380D01*
X113952380Y-72333333D01*
X114095238Y-72333333D01*
X114190476Y-72380952D01*
X114238095Y-72428571D01*
X114285714Y-72523809D01*
X114285714Y-72761904D01*
X114238095Y-72857142D01*
X114190476Y-72904761D01*
X114095238Y-72952380D01*
X113809523Y-72952380D01*
X113714285Y-72904761D01*
X113666666Y-72857142D01*
%TO.C,R11*%
X153952380Y-73620357D02*
X153476190Y-73953690D01*
X153952380Y-74191785D02*
X152952380Y-74191785D01*
X152952380Y-73810833D01*
X153000000Y-73715595D01*
X153047619Y-73667976D01*
X153142857Y-73620357D01*
X153285714Y-73620357D01*
X153380952Y-73667976D01*
X153428571Y-73715595D01*
X153476190Y-73810833D01*
X153476190Y-74191785D01*
X153952380Y-72667976D02*
X153952380Y-73239404D01*
X153952380Y-72953690D02*
X152952380Y-72953690D01*
X153095238Y-73048928D01*
X153190476Y-73144166D01*
X153238095Y-73239404D01*
X153952380Y-71715595D02*
X153952380Y-72287023D01*
X153952380Y-72001309D02*
X152952380Y-72001309D01*
X153095238Y-72096547D01*
X153190476Y-72191785D01*
X153238095Y-72287023D01*
%TO.C,D6*%
X158502380Y-126088095D02*
X157502380Y-126088095D01*
X157502380Y-125850000D01*
X157550000Y-125707142D01*
X157645238Y-125611904D01*
X157740476Y-125564285D01*
X157930952Y-125516666D01*
X158073809Y-125516666D01*
X158264285Y-125564285D01*
X158359523Y-125611904D01*
X158454761Y-125707142D01*
X158502380Y-125850000D01*
X158502380Y-126088095D01*
X157502380Y-124659523D02*
X157502380Y-124850000D01*
X157550000Y-124945238D01*
X157597619Y-124992857D01*
X157740476Y-125088095D01*
X157930952Y-125135714D01*
X158311904Y-125135714D01*
X158407142Y-125088095D01*
X158454761Y-125040476D01*
X158502380Y-124945238D01*
X158502380Y-124754761D01*
X158454761Y-124659523D01*
X158407142Y-124611904D01*
X158311904Y-124564285D01*
X158073809Y-124564285D01*
X157978571Y-124611904D01*
X157930952Y-124659523D01*
X157883333Y-124754761D01*
X157883333Y-124945238D01*
X157930952Y-125040476D01*
X157978571Y-125088095D01*
X158073809Y-125135714D01*
%TO.C,J4*%
X176367380Y-120668333D02*
X177081666Y-120668333D01*
X177224523Y-120715952D01*
X177319761Y-120811190D01*
X177367380Y-120954047D01*
X177367380Y-121049285D01*
X176700714Y-119763571D02*
X177367380Y-119763571D01*
X176319761Y-120001666D02*
X177034047Y-120239761D01*
X177034047Y-119620714D01*
%TO.C,C1*%
X134833333Y-92357142D02*
X134785714Y-92404761D01*
X134642857Y-92452380D01*
X134547619Y-92452380D01*
X134404761Y-92404761D01*
X134309523Y-92309523D01*
X134261904Y-92214285D01*
X134214285Y-92023809D01*
X134214285Y-91880952D01*
X134261904Y-91690476D01*
X134309523Y-91595238D01*
X134404761Y-91500000D01*
X134547619Y-91452380D01*
X134642857Y-91452380D01*
X134785714Y-91500000D01*
X134833333Y-91547619D01*
X135785714Y-92452380D02*
X135214285Y-92452380D01*
X135500000Y-92452380D02*
X135500000Y-91452380D01*
X135404761Y-91595238D01*
X135309523Y-91690476D01*
X135214285Y-91738095D01*
%TO.C,D3*%
X112761904Y-76552380D02*
X112761904Y-75552380D01*
X113000000Y-75552380D01*
X113142857Y-75600000D01*
X113238095Y-75695238D01*
X113285714Y-75790476D01*
X113333333Y-75980952D01*
X113333333Y-76123809D01*
X113285714Y-76314285D01*
X113238095Y-76409523D01*
X113142857Y-76504761D01*
X113000000Y-76552380D01*
X112761904Y-76552380D01*
X113666666Y-75552380D02*
X114285714Y-75552380D01*
X113952380Y-75933333D01*
X114095238Y-75933333D01*
X114190476Y-75980952D01*
X114238095Y-76028571D01*
X114285714Y-76123809D01*
X114285714Y-76361904D01*
X114238095Y-76457142D01*
X114190476Y-76504761D01*
X114095238Y-76552380D01*
X113809523Y-76552380D01*
X113714285Y-76504761D01*
X113666666Y-76457142D01*
%TO.C,R6*%
X115420833Y-84952380D02*
X115087500Y-84476190D01*
X114849404Y-84952380D02*
X114849404Y-83952380D01*
X115230357Y-83952380D01*
X115325595Y-84000000D01*
X115373214Y-84047619D01*
X115420833Y-84142857D01*
X115420833Y-84285714D01*
X115373214Y-84380952D01*
X115325595Y-84428571D01*
X115230357Y-84476190D01*
X114849404Y-84476190D01*
X116277976Y-83952380D02*
X116087500Y-83952380D01*
X115992261Y-84000000D01*
X115944642Y-84047619D01*
X115849404Y-84190476D01*
X115801785Y-84380952D01*
X115801785Y-84761904D01*
X115849404Y-84857142D01*
X115897023Y-84904761D01*
X115992261Y-84952380D01*
X116182738Y-84952380D01*
X116277976Y-84904761D01*
X116325595Y-84857142D01*
X116373214Y-84761904D01*
X116373214Y-84523809D01*
X116325595Y-84428571D01*
X116277976Y-84380952D01*
X116182738Y-84333333D01*
X115992261Y-84333333D01*
X115897023Y-84380952D01*
X115849404Y-84428571D01*
X115801785Y-84523809D01*
%TO.C,R2*%
X123333333Y-72952380D02*
X123000000Y-72476190D01*
X122761904Y-72952380D02*
X122761904Y-71952380D01*
X123142857Y-71952380D01*
X123238095Y-72000000D01*
X123285714Y-72047619D01*
X123333333Y-72142857D01*
X123333333Y-72285714D01*
X123285714Y-72380952D01*
X123238095Y-72428571D01*
X123142857Y-72476190D01*
X122761904Y-72476190D01*
X123714285Y-72047619D02*
X123761904Y-72000000D01*
X123857142Y-71952380D01*
X124095238Y-71952380D01*
X124190476Y-72000000D01*
X124238095Y-72047619D01*
X124285714Y-72142857D01*
X124285714Y-72238095D01*
X124238095Y-72380952D01*
X123666666Y-72952380D01*
X124285714Y-72952380D01*
%TO.C,D2*%
X117761904Y-76552380D02*
X117761904Y-75552380D01*
X118000000Y-75552380D01*
X118142857Y-75600000D01*
X118238095Y-75695238D01*
X118285714Y-75790476D01*
X118333333Y-75980952D01*
X118333333Y-76123809D01*
X118285714Y-76314285D01*
X118238095Y-76409523D01*
X118142857Y-76504761D01*
X118000000Y-76552380D01*
X117761904Y-76552380D01*
X118714285Y-75647619D02*
X118761904Y-75600000D01*
X118857142Y-75552380D01*
X119095238Y-75552380D01*
X119190476Y-75600000D01*
X119238095Y-75647619D01*
X119285714Y-75742857D01*
X119285714Y-75838095D01*
X119238095Y-75980952D01*
X118666666Y-76552380D01*
X119285714Y-76552380D01*
%TO.C,TP1*%
X106738095Y-79122380D02*
X107309523Y-79122380D01*
X107023809Y-80122380D02*
X107023809Y-79122380D01*
X107642857Y-80122380D02*
X107642857Y-79122380D01*
X108023809Y-79122380D01*
X108119047Y-79170000D01*
X108166666Y-79217619D01*
X108214285Y-79312857D01*
X108214285Y-79455714D01*
X108166666Y-79550952D01*
X108119047Y-79598571D01*
X108023809Y-79646190D01*
X107642857Y-79646190D01*
X109166666Y-80122380D02*
X108595238Y-80122380D01*
X108880952Y-80122380D02*
X108880952Y-79122380D01*
X108785714Y-79265238D01*
X108690476Y-79360476D01*
X108595238Y-79408095D01*
D11*
%TO.C,J1*%
X128500000Y-126405000D02*
X128500000Y-107405000D01*
X149500000Y-107405000D02*
X149500000Y-126405000D01*
X128500000Y-107405000D02*
X149500000Y-107405000D01*
X149500000Y-126405000D02*
X128500000Y-126405000D01*
%TO.C,TP2*%
X153170000Y-90795000D02*
X155830000Y-90795000D01*
X155830000Y-90795000D02*
X155830000Y-118795000D01*
X153170000Y-88195000D02*
X154500000Y-88195000D01*
X153170000Y-89525000D02*
X153170000Y-88195000D01*
X153170000Y-90795000D02*
X153170000Y-118795000D01*
X153170000Y-118795000D02*
X155830000Y-118795000D01*
%TO.C,R5*%
X129245276Y-84477500D02*
X129754724Y-84477500D01*
X129245276Y-85522500D02*
X129754724Y-85522500D01*
%TO.C,C9*%
X133010000Y-54283767D02*
X133010000Y-53991233D01*
X131990000Y-54283767D02*
X131990000Y-53991233D01*
%TO.C,C8*%
X150853733Y-70490000D02*
X151146267Y-70490000D01*
X150853733Y-71510000D02*
X151146267Y-71510000D01*
%TO.C,TP3*%
X183670000Y-83270000D02*
X183670000Y-83330000D01*
X183670000Y-83330000D02*
X186330000Y-83330000D01*
X183670000Y-83270000D02*
X186330000Y-83270000D01*
X183670000Y-82000000D02*
X183670000Y-80670000D01*
X183670000Y-80670000D02*
X185000000Y-80670000D01*
X186330000Y-83270000D02*
X186330000Y-83330000D01*
%TO.C,JP1*%
X125330000Y-99230000D02*
X122670000Y-99230000D01*
X122670000Y-99230000D02*
X122670000Y-96630000D01*
X125330000Y-100500000D02*
X125330000Y-101830000D01*
X125330000Y-96630000D02*
X122670000Y-96630000D01*
X125330000Y-99230000D02*
X125330000Y-96630000D01*
X125330000Y-101830000D02*
X124000000Y-101830000D01*
%TO.C,C6*%
X150853733Y-74480000D02*
X151146267Y-74480000D01*
X150853733Y-75500000D02*
X151146267Y-75500000D01*
%TO.C,R1*%
X151022500Y-86842224D02*
X151022500Y-86332776D01*
X149977500Y-86842224D02*
X149977500Y-86332776D01*
%TO.C,C7*%
X112441233Y-81500000D02*
X112733767Y-81500000D01*
X112441233Y-82520000D02*
X112733767Y-82520000D01*
%TO.C,R12*%
X135745276Y-101522500D02*
X136254724Y-101522500D01*
X135745276Y-100477500D02*
X136254724Y-100477500D01*
%TO.C,R14*%
X137022500Y-72254724D02*
X137022500Y-71745276D01*
X135977500Y-72254724D02*
X135977500Y-71745276D01*
%TO.C,C2*%
X135853733Y-99510000D02*
X136146267Y-99510000D01*
X135853733Y-98490000D02*
X136146267Y-98490000D01*
%TO.C,R19*%
X151995276Y-120277500D02*
X152504724Y-120277500D01*
X151995276Y-121322500D02*
X152504724Y-121322500D01*
%TO.C,R9*%
X108477500Y-92745276D02*
X108477500Y-93254724D01*
X109522500Y-92745276D02*
X109522500Y-93254724D01*
%TO.C,R15*%
X139245276Y-69022500D02*
X139754724Y-69022500D01*
X139245276Y-67977500D02*
X139754724Y-67977500D01*
%TO.C,U2*%
X140600000Y-80710000D02*
X140600000Y-79870000D01*
X143360000Y-80710000D02*
X140600000Y-80710000D01*
X143360000Y-70290000D02*
X140600000Y-70290000D01*
X140600000Y-70290000D02*
X140600000Y-71130000D01*
X146120000Y-80710000D02*
X146120000Y-79870000D01*
X143360000Y-70290000D02*
X146120000Y-70290000D01*
X146120000Y-70290000D02*
X146120000Y-71130000D01*
X143360000Y-80710000D02*
X146120000Y-80710000D01*
X146120000Y-79870000D02*
X147810000Y-79870000D01*
%TO.C,J2*%
X106000000Y-126405000D02*
X106000000Y-107405000D01*
X127000000Y-126405000D02*
X106000000Y-126405000D01*
X127000000Y-107405000D02*
X127000000Y-126405000D01*
X106000000Y-107405000D02*
X127000000Y-107405000D01*
%TO.C,D1*%
X123500000Y-80060000D02*
X122850000Y-80060000D01*
X123500000Y-80060000D02*
X124150000Y-80060000D01*
X123500000Y-76940000D02*
X124150000Y-76940000D01*
X123500000Y-76940000D02*
X121825000Y-76940000D01*
%TO.C,Q5*%
X148500000Y-65440000D02*
X146825000Y-65440000D01*
X148500000Y-68560000D02*
X147850000Y-68560000D01*
X148500000Y-68560000D02*
X149150000Y-68560000D01*
X148500000Y-65440000D02*
X149150000Y-65440000D01*
%TO.C,Q2*%
X114560000Y-88500000D02*
X114560000Y-89150000D01*
X111440000Y-88500000D02*
X111440000Y-87850000D01*
X114560000Y-88500000D02*
X114560000Y-86825000D01*
X111440000Y-88500000D02*
X111440000Y-89150000D01*
%TO.C,SW1*%
X139670000Y-54750000D02*
X139670000Y-54720000D01*
X139670000Y-54720000D02*
X146130000Y-54720000D01*
X146130000Y-61180000D02*
X146130000Y-61150000D01*
X146130000Y-54720000D02*
X146130000Y-54750000D01*
X139670000Y-56650000D02*
X139670000Y-59250000D01*
X146130000Y-56650000D02*
X146130000Y-59250000D01*
X139670000Y-61180000D02*
X146130000Y-61180000D01*
X139670000Y-61180000D02*
X139670000Y-61150000D01*
%TO.C,C5*%
X118491233Y-82510000D02*
X118783767Y-82510000D01*
X118491233Y-81490000D02*
X118783767Y-81490000D01*
%TO.C,J3*%
X154730000Y-53200000D02*
X156060000Y-53200000D01*
X154730000Y-55800000D02*
X157390000Y-55800000D01*
X154730000Y-76180000D02*
X157390000Y-76180000D01*
X157390000Y-55800000D02*
X157390000Y-76180000D01*
X154730000Y-54530000D02*
X154730000Y-53200000D01*
X154730000Y-55800000D02*
X154730000Y-76180000D01*
%TO.C,JP3*%
X110330000Y-96405000D02*
X107670000Y-96405000D01*
X110330000Y-99005000D02*
X110330000Y-96405000D01*
X110330000Y-100275000D02*
X110330000Y-101605000D01*
X107670000Y-99005000D02*
X107670000Y-96405000D01*
X110330000Y-101605000D02*
X109000000Y-101605000D01*
X110330000Y-99005000D02*
X107670000Y-99005000D01*
%TO.C,Q4*%
X118440000Y-88500000D02*
X118440000Y-89150000D01*
X121560000Y-88500000D02*
X121560000Y-89150000D01*
X118440000Y-88500000D02*
X118440000Y-87850000D01*
X121560000Y-88500000D02*
X121560000Y-86825000D01*
%TO.C,R18*%
X148245276Y-63522500D02*
X148754724Y-63522500D01*
X148245276Y-62477500D02*
X148754724Y-62477500D01*
%TO.C,R8*%
X112477500Y-92745276D02*
X112477500Y-93254724D01*
X113522500Y-92745276D02*
X113522500Y-93254724D01*
%TO.C,R20*%
X158722500Y-121445276D02*
X158722500Y-121954724D01*
X157677500Y-121445276D02*
X157677500Y-121954724D01*
%TO.C,C4*%
X117853733Y-73490000D02*
X118146267Y-73490000D01*
X117853733Y-74510000D02*
X118146267Y-74510000D01*
%TO.C,J5*%
X186330000Y-124550000D02*
X186330000Y-125880000D01*
X183670000Y-123280000D02*
X183670000Y-85120000D01*
X186330000Y-125880000D02*
X185000000Y-125880000D01*
X186330000Y-123280000D02*
X186330000Y-85120000D01*
X186330000Y-123280000D02*
X183670000Y-123280000D01*
X186330000Y-85120000D02*
X183670000Y-85120000D01*
%TO.C,R10*%
X119500000Y-93479724D02*
X119500000Y-92970276D01*
X120545000Y-93479724D02*
X120545000Y-92970276D01*
%TO.C,JP4*%
X114330000Y-99005000D02*
X114330000Y-96405000D01*
X114330000Y-96405000D02*
X111670000Y-96405000D01*
X114330000Y-99005000D02*
X111670000Y-99005000D01*
X114330000Y-100275000D02*
X114330000Y-101605000D01*
X111670000Y-99005000D02*
X111670000Y-96405000D01*
X114330000Y-101605000D02*
X113000000Y-101605000D01*
%TO.C,U4*%
X158600000Y-117830000D02*
X158600000Y-54330000D01*
X158600000Y-54330000D02*
X181460000Y-54330000D01*
X181460000Y-54330000D02*
X181460000Y-117830000D01*
X181460000Y-117830000D02*
X158600000Y-117830000D01*
X158600000Y-56870000D02*
X161140000Y-54330000D01*
%TO.C,Q1*%
X107377500Y-88500000D02*
X107377500Y-89150000D01*
X107377500Y-88500000D02*
X107377500Y-87850000D01*
X110497500Y-88500000D02*
X110497500Y-86825000D01*
X110497500Y-88500000D02*
X110497500Y-89150000D01*
%TO.C,R7*%
X123477500Y-92970276D02*
X123477500Y-93479724D01*
X124522500Y-92970276D02*
X124522500Y-93479724D01*
%TO.C,JP2*%
X121330000Y-99230000D02*
X118670000Y-99230000D01*
X121330000Y-99230000D02*
X121330000Y-96630000D01*
X121330000Y-101830000D02*
X120000000Y-101830000D01*
X121330000Y-100500000D02*
X121330000Y-101830000D01*
X118670000Y-99230000D02*
X118670000Y-96630000D01*
X121330000Y-96630000D02*
X118670000Y-96630000D01*
%TO.C,J6*%
X186330000Y-53235000D02*
X183670000Y-53235000D01*
X186330000Y-77425000D02*
X186330000Y-78755000D01*
X186330000Y-76155000D02*
X183670000Y-76155000D01*
X186330000Y-78755000D02*
X185000000Y-78755000D01*
X183670000Y-76155000D02*
X183670000Y-53235000D01*
X186330000Y-76155000D02*
X186330000Y-53235000D01*
%TO.C,TP4*%
X133670000Y-66270000D02*
X133670000Y-66330000D01*
X136330000Y-66270000D02*
X136330000Y-66330000D01*
X133670000Y-66330000D02*
X136330000Y-66330000D01*
X133670000Y-63670000D02*
X135000000Y-63670000D01*
X133670000Y-66270000D02*
X136330000Y-66270000D01*
X133670000Y-65000000D02*
X133670000Y-63670000D01*
%TO.C,U1*%
X140740000Y-93790000D02*
X140740000Y-94535000D01*
X146260000Y-100210000D02*
X146260000Y-99465000D01*
X143500000Y-93790000D02*
X140740000Y-93790000D01*
X143500000Y-100210000D02*
X146260000Y-100210000D01*
X140740000Y-100210000D02*
X140740000Y-99465000D01*
X143500000Y-100210000D02*
X140740000Y-100210000D01*
X146260000Y-99465000D02*
X147950000Y-99465000D01*
X143500000Y-93790000D02*
X146260000Y-93790000D01*
X146260000Y-93790000D02*
X146260000Y-94535000D01*
%TO.C,TP5*%
X138170000Y-104830000D02*
X140830000Y-104830000D01*
X138170000Y-104770000D02*
X138170000Y-104830000D01*
X138170000Y-102170000D02*
X139500000Y-102170000D01*
X138170000Y-103500000D02*
X138170000Y-102170000D01*
X140830000Y-104770000D02*
X140830000Y-104830000D01*
X138170000Y-104770000D02*
X140830000Y-104770000D01*
%TO.C,D5*%
X152065000Y-122900000D02*
X152065000Y-125360000D01*
X152065000Y-125360000D02*
X153535000Y-125360000D01*
X153535000Y-125360000D02*
X153535000Y-122900000D01*
%TO.C,R17*%
X108745276Y-74545000D02*
X109254724Y-74545000D01*
X108745276Y-73500000D02*
X109254724Y-73500000D01*
%TO.C,U3*%
X146120000Y-90965000D02*
X147810000Y-90965000D01*
X146120000Y-85290000D02*
X146120000Y-86035000D01*
X140600000Y-85290000D02*
X140600000Y-86035000D01*
X143360000Y-85290000D02*
X140600000Y-85290000D01*
X140600000Y-91710000D02*
X140600000Y-90965000D01*
X143360000Y-91710000D02*
X140600000Y-91710000D01*
X143360000Y-85290000D02*
X146120000Y-85290000D01*
X146120000Y-91710000D02*
X146120000Y-90965000D01*
X143360000Y-91710000D02*
X146120000Y-91710000D01*
%TO.C,R16*%
X139245276Y-66000000D02*
X139754724Y-66000000D01*
X139245276Y-67045000D02*
X139754724Y-67045000D01*
%TO.C,R4*%
X129245276Y-83022500D02*
X129754724Y-83022500D01*
X129245276Y-81977500D02*
X129754724Y-81977500D01*
%TO.C,R3*%
X129754724Y-79477500D02*
X129245276Y-79477500D01*
X129754724Y-80522500D02*
X129245276Y-80522500D01*
%TO.C,R13*%
X134775000Y-71745276D02*
X134775000Y-72254724D01*
X133730000Y-71745276D02*
X133730000Y-72254724D01*
%TO.C,Q3*%
X125560000Y-88500000D02*
X125560000Y-89150000D01*
X125560000Y-88500000D02*
X125560000Y-86825000D01*
X122440000Y-88500000D02*
X122440000Y-89150000D01*
X122440000Y-88500000D02*
X122440000Y-87850000D01*
%TO.C,C3*%
X113646267Y-74510000D02*
X113353733Y-74510000D01*
X113646267Y-73490000D02*
X113353733Y-73490000D01*
%TO.C,R11*%
X151254724Y-72455000D02*
X150745276Y-72455000D01*
X151254724Y-73500000D02*
X150745276Y-73500000D01*
%TO.C,D6*%
X157085000Y-125260000D02*
X157085000Y-122800000D01*
X155615000Y-122800000D02*
X155615000Y-125260000D01*
X155615000Y-125260000D02*
X157085000Y-125260000D01*
%TO.C,J4*%
X174305000Y-122170000D02*
X174305000Y-124830000D01*
X174305000Y-122170000D02*
X164085000Y-122170000D01*
X175575000Y-122170000D02*
X176905000Y-122170000D01*
X174305000Y-124830000D02*
X164085000Y-124830000D01*
X176905000Y-122170000D02*
X176905000Y-123500000D01*
X164085000Y-122170000D02*
X164085000Y-124830000D01*
%TO.C,C1*%
X136283767Y-91010000D02*
X135991233Y-91010000D01*
X136283767Y-89990000D02*
X135991233Y-89990000D01*
%TO.C,D3*%
X113500000Y-76940000D02*
X111825000Y-76940000D01*
X113500000Y-76940000D02*
X114150000Y-76940000D01*
X113500000Y-80060000D02*
X112850000Y-80060000D01*
X113500000Y-80060000D02*
X114150000Y-80060000D01*
%TO.C,R6*%
X112332776Y-85067500D02*
X112842224Y-85067500D01*
X112332776Y-84022500D02*
X112842224Y-84022500D01*
%TO.C,R2*%
X123754724Y-73500000D02*
X123245276Y-73500000D01*
X123754724Y-74545000D02*
X123245276Y-74545000D01*
%TO.C,D2*%
X118500000Y-76940000D02*
X119150000Y-76940000D01*
X118500000Y-80060000D02*
X119150000Y-80060000D01*
X118500000Y-76940000D02*
X116825000Y-76940000D01*
X118500000Y-80060000D02*
X117850000Y-80060000D01*
%TO.C,TP1*%
X106670000Y-80670000D02*
X108000000Y-80670000D01*
X106670000Y-83270000D02*
X106670000Y-83330000D01*
X106670000Y-83270000D02*
X109330000Y-83270000D01*
X106670000Y-82000000D02*
X106670000Y-80670000D01*
X109330000Y-83270000D02*
X109330000Y-83330000D01*
X106670000Y-83330000D02*
X109330000Y-83330000D01*
%TD*%
M02*
