M48
; DRILL file {KiCad 6.0.11+dfsg-1} date Mon 01 Apr 2024 21:04:14 BST
; FORMAT={-:-/ absolute / inch / decimal}
; #@! TF.CreationDate,2024-04-01T21:04:14+01:00
; #@! TF.GenerationSoftware,Kicad,Pcbnew,6.0.11+dfsg-1
; #@! TF.FileFunction,Plated,1,4,PTH
FMAT,2
INCH
; #@! TA.AperFunction,Plated,PTH,ViaDrill
T1C0.0157
; #@! TA.AperFunction,Plated,PTH,ComponentDrill
T2C0.0236
; #@! TA.AperFunction,Plated,PTH,ViaDrill
T3C0.0276
; #@! TA.AperFunction,Plated,PTH,ComponentDrill
T4C0.0300
; #@! TA.AperFunction,Plated,PTH,ComponentDrill
T5C0.0394
%
G90
G05
T1
X4.252Y-3.3858
X4.3898Y-3.3858
X4.6063Y-2.9724
X4.685Y-3.3858
X4.7638Y-2.9724
X4.7638Y-3.2736
X4.8425Y-3.3858
X4.9803Y-2.9134
X5.1339Y-3.4134
X5.1969Y-3.0906
X5.2165Y-2.7953
X5.25Y-3.563
X5.2559Y-3.8976
X5.4134Y-3.1693
X5.4173Y-2.9626
X5.4173Y-3.4075
X5.4232Y-3.7421
X5.5906Y-3.5039
X5.6102Y-2.9331
X5.6234Y-3.5498
X5.689Y-3.1299
X5.7283Y-2.4409
X5.7874Y-3.2087
X5.9646Y-3.878
X6.0433Y-2.8346
X6.4764Y-2.4803
X6.5551Y-2.4409
T3
X5.2362Y-3.9764
X5.3937Y-3.6417
X5.8268Y-4.0157
X5.9252Y-3.0315
X5.9843Y-3.1102
T4
X4.3547Y-2.1007
X4.3547Y-2.2007
X4.3547Y-2.3007
X4.3547Y-2.4007
X4.3547Y-2.5007
X4.3547Y-2.6007
X4.3547Y-2.7007
X5.0547Y-2.1007
X5.0547Y-2.2007
X5.0547Y-2.3007
X5.0547Y-2.4007
X6.3441Y-2.239
X6.3441Y-2.339
X6.3441Y-2.439
X6.3441Y-2.539
X6.3441Y-2.639
X6.3441Y-2.739
X6.3441Y-2.839
X6.3441Y-2.939
X6.3441Y-3.039
X6.3441Y-3.139
X6.3441Y-3.239
X6.3441Y-3.339
X6.3441Y-3.439
X6.3441Y-3.539
X6.3441Y-3.639
X6.3441Y-3.739
X6.3441Y-3.839
X6.3441Y-3.939
X6.3441Y-4.039
X6.3441Y-4.139
X6.3441Y-4.239
X6.3441Y-4.339
X6.3441Y-4.439
X6.3441Y-4.539
X7.0441Y-2.239
X7.0441Y-2.339
X7.0441Y-2.439
X7.0441Y-2.539
X7.0441Y-2.639
X7.0441Y-2.739
X7.0441Y-2.839
X7.0441Y-2.939
X7.0441Y-3.039
X7.0441Y-3.139
X7.0441Y-3.239
X7.0441Y-3.339
X7.0441Y-3.439
X7.0441Y-3.539
X7.0441Y-3.639
X7.0441Y-3.739
X7.0441Y-3.839
X7.0441Y-3.939
X7.0441Y-4.039
X7.0441Y-4.139
X7.0441Y-4.239
X7.0441Y-4.339
X7.0441Y-4.439
X7.0441Y-4.539
T5
X4.252Y-3.2283
X4.2913Y-3.8478
X4.2913Y-3.9478
X4.4488Y-3.8478
X4.4488Y-3.9478
X4.7244Y-3.8567
X4.7244Y-3.9567
X4.8819Y-3.8567
X4.8819Y-3.9567
X5.315Y-2.5591
X5.4921Y-4.0748
X6.0827Y-3.5246
X6.0827Y-3.6246
X6.0827Y-3.7246
X6.0827Y-3.8246
X6.0827Y-3.9246
X6.0827Y-4.0246
X6.0827Y-4.1246
X6.0827Y-4.2246
X6.0827Y-4.3246
X6.0827Y-4.4246
X6.0827Y-4.5246
X6.0827Y-4.6246
X6.1441Y-2.1469
X6.1441Y-2.2469
X6.1441Y-2.3469
X6.1441Y-2.4469
X6.1441Y-2.5469
X6.1441Y-2.6469
X6.1441Y-2.7469
X6.1441Y-2.8469
X6.1441Y-2.9469
X6.5124Y-4.8622
X6.6124Y-4.8622
X6.7124Y-4.8622
X6.8124Y-4.8622
X6.9124Y-4.8622
X7.2835Y-2.1482
X7.2835Y-2.2482
X7.2835Y-2.3482
X7.2835Y-2.4482
X7.2835Y-2.5482
X7.2835Y-2.6482
X7.2835Y-2.7482
X7.2835Y-2.8482
X7.2835Y-2.9482
X7.2835Y-3.0482
X7.2835Y-3.2283
X7.2835Y-3.4035
X7.2835Y-3.5035
X7.2835Y-3.6035
X7.2835Y-3.7035
X7.2835Y-3.8035
X7.2835Y-3.9035
X7.2835Y-4.0035
X7.2835Y-4.1035
X7.2835Y-4.2035
X7.2835Y-4.3035
X7.2835Y-4.4035
X7.2835Y-4.5035
X7.2835Y-4.6035
X7.2835Y-4.7035
X7.2835Y-4.8035
X7.2835Y-4.9035
T2
G00X4.4961Y-4.8781
M15
G01X4.4803Y-4.8781
M16
G05
G00X4.6929Y-4.8781
M15
G01X4.6772Y-4.8781
M16
G05
G00X5.3819Y-4.8781
M15
G01X5.3661Y-4.8781
M16
G05
G00X5.5787Y-4.8781
M15
G01X5.563Y-4.8781
M16
G05
T5
G00X4.2913Y-4.5081
M15
G01X4.2913Y-4.4687
M16
G05
G00X4.3898Y-4.4096
M15
G01X4.3898Y-4.3703
M16
G05
G00X4.5866Y-4.5081
M15
G01X4.5866Y-4.4687
M16
G05
G00X4.7835Y-4.4096
M15
G01X4.7835Y-4.3703
M16
G05
G00X4.8819Y-4.5081
M15
G01X4.8819Y-4.4687
M16
G05
G00X5.1772Y-4.5081
M15
G01X5.1772Y-4.4687
M16
G05
G00X5.2756Y-4.4096
M15
G01X5.2756Y-4.3703
M16
G05
G00X5.4724Y-4.5081
M15
G01X5.4724Y-4.4687
M16
G05
G00X5.6693Y-4.4096
M15
G01X5.6693Y-4.3703
M16
G05
G00X5.7677Y-4.5081
M15
G01X5.7677Y-4.4687
M16
G05
T0
M30
