%TF.GenerationSoftware,KiCad,Pcbnew,6.0.11+dfsg-1*%
%TF.CreationDate,2024-04-01T21:04:22+01:00*%
%TF.ProjectId,filestick-prototype,66696c65-7374-4696-936b-2d70726f746f,rev?*%
%TF.SameCoordinates,Original*%
%TF.FileFunction,Soldermask,Bot*%
%TF.FilePolarity,Negative*%
%FSLAX46Y46*%
G04 Gerber Fmt 4.6, Leading zero omitted, Abs format (unit mm)*
G04 Created by KiCad (PCBNEW 6.0.11+dfsg-1) date 2024-04-01 21:04:22*
%MOMM*%
%LPD*%
G01*
G04 APERTURE LIST*
%ADD10O,1.700000X2.700000*%
%ADD11O,1.700000X1.300000*%
%ADD12R,1.700000X1.700000*%
%ADD13O,1.700000X1.700000*%
%ADD14C,1.524000*%
G04 APERTURE END LIST*
D10*
%TO.C,J1*%
X131500000Y-114005000D03*
X139000000Y-114005000D03*
X146500000Y-114005000D03*
X134000000Y-111505000D03*
X144000000Y-111505000D03*
D11*
X141500000Y-123905000D03*
X136500000Y-123905000D03*
%TD*%
D12*
%TO.C,TP2*%
X154500000Y-89525000D03*
D13*
X154500000Y-92065000D03*
X154500000Y-94605000D03*
X154500000Y-97145000D03*
X154500000Y-99685000D03*
X154500000Y-102225000D03*
X154500000Y-104765000D03*
X154500000Y-107305000D03*
X154500000Y-109845000D03*
X154500000Y-112385000D03*
X154500000Y-114925000D03*
X154500000Y-117465000D03*
%TD*%
D12*
%TO.C,TP3*%
X185000000Y-82000000D03*
%TD*%
%TO.C,JP1*%
X124000000Y-100500000D03*
D13*
X124000000Y-97960000D03*
%TD*%
D10*
%TO.C,J2*%
X109000000Y-114005000D03*
X116500000Y-114005000D03*
X124000000Y-114005000D03*
X111500000Y-111505000D03*
X121500000Y-111505000D03*
D11*
X119000000Y-123905000D03*
X114000000Y-123905000D03*
%TD*%
D14*
%TO.C,U5*%
X110610000Y-53357500D03*
X110610000Y-55897500D03*
X110610000Y-58437500D03*
X110610000Y-60977500D03*
X110610000Y-63517500D03*
X110610000Y-66057500D03*
X110610000Y-68597500D03*
X128390000Y-60977500D03*
X128390000Y-58437500D03*
X128390000Y-55897500D03*
X128390000Y-53357500D03*
%TD*%
D12*
%TO.C,J3*%
X156060000Y-54530000D03*
D13*
X156060000Y-57070000D03*
X156060000Y-59610000D03*
X156060000Y-62150000D03*
X156060000Y-64690000D03*
X156060000Y-67230000D03*
X156060000Y-69770000D03*
X156060000Y-72310000D03*
X156060000Y-74850000D03*
%TD*%
D12*
%TO.C,JP3*%
X109000000Y-100275000D03*
D13*
X109000000Y-97735000D03*
%TD*%
D12*
%TO.C,J5*%
X185000000Y-124550000D03*
D13*
X185000000Y-122010000D03*
X185000000Y-119470000D03*
X185000000Y-116930000D03*
X185000000Y-114390000D03*
X185000000Y-111850000D03*
X185000000Y-109310000D03*
X185000000Y-106770000D03*
X185000000Y-104230000D03*
X185000000Y-101690000D03*
X185000000Y-99150000D03*
X185000000Y-96610000D03*
X185000000Y-94070000D03*
X185000000Y-91530000D03*
X185000000Y-88990000D03*
X185000000Y-86450000D03*
%TD*%
D12*
%TO.C,JP4*%
X113000000Y-100275000D03*
D13*
X113000000Y-97735000D03*
%TD*%
D14*
%TO.C,U4*%
X161140000Y-56870000D03*
X161140000Y-59410000D03*
X161140000Y-61950000D03*
X161140000Y-64490000D03*
X161140000Y-67030000D03*
X161140000Y-69570000D03*
X161140000Y-72110000D03*
X161140000Y-74650000D03*
X161140000Y-77190000D03*
X161140000Y-79730000D03*
X161140000Y-82270000D03*
X161140000Y-84810000D03*
X161140000Y-87350000D03*
X161140000Y-89890000D03*
X161140000Y-92430000D03*
X161140000Y-94970000D03*
X161140000Y-97510000D03*
X161140000Y-100050000D03*
X161140000Y-102590000D03*
X161140000Y-105130000D03*
X161140000Y-107670000D03*
X161140000Y-110210000D03*
X161140000Y-112750000D03*
X161140000Y-115290000D03*
X178920000Y-115290000D03*
X178920000Y-112750000D03*
X178920000Y-110210000D03*
X178920000Y-107670000D03*
X178920000Y-105130000D03*
X178920000Y-102590000D03*
X178920000Y-100050000D03*
X178920000Y-97510000D03*
X178920000Y-94970000D03*
X178920000Y-92430000D03*
X178920000Y-89890000D03*
X178920000Y-87350000D03*
X178920000Y-84810000D03*
X178920000Y-82270000D03*
X178920000Y-79730000D03*
X178920000Y-77190000D03*
X178920000Y-74650000D03*
X178920000Y-72110000D03*
X178920000Y-69570000D03*
X178920000Y-67030000D03*
X178920000Y-64490000D03*
X178920000Y-61950000D03*
X178920000Y-59410000D03*
X178920000Y-56870000D03*
%TD*%
D12*
%TO.C,JP2*%
X120000000Y-100500000D03*
D13*
X120000000Y-97960000D03*
%TD*%
D12*
%TO.C,J6*%
X185000000Y-77425000D03*
D13*
X185000000Y-74885000D03*
X185000000Y-72345000D03*
X185000000Y-69805000D03*
X185000000Y-67265000D03*
X185000000Y-64725000D03*
X185000000Y-62185000D03*
X185000000Y-59645000D03*
X185000000Y-57105000D03*
X185000000Y-54565000D03*
%TD*%
D12*
%TO.C,TP4*%
X135000000Y-65000000D03*
%TD*%
%TO.C,TP5*%
X139500000Y-103500000D03*
%TD*%
%TO.C,J4*%
X175575000Y-123500000D03*
D13*
X173035000Y-123500000D03*
X170495000Y-123500000D03*
X167955000Y-123500000D03*
X165415000Y-123500000D03*
%TD*%
D12*
%TO.C,TP1*%
X108000000Y-82000000D03*
%TD*%
M02*
