%TF.GenerationSoftware,KiCad,Pcbnew,6.0.11+dfsg-1*%
%TF.CreationDate,2024-04-01T21:04:22+01:00*%
%TF.ProjectId,filestick-prototype,66696c65-7374-4696-936b-2d70726f746f,rev?*%
%TF.SameCoordinates,Original*%
%TF.FileFunction,Soldermask,Top*%
%TF.FilePolarity,Negative*%
%FSLAX46Y46*%
G04 Gerber Fmt 4.6, Leading zero omitted, Abs format (unit mm)*
G04 Created by KiCad (PCBNEW 6.0.11+dfsg-1) date 2024-04-01 21:04:22*
%MOMM*%
%LPD*%
G01*
G04 APERTURE LIST*
G04 Aperture macros list*
%AMRoundRect*
0 Rectangle with rounded corners*
0 $1 Rounding radius*
0 $2 $3 $4 $5 $6 $7 $8 $9 X,Y pos of 4 corners*
0 Add a 4 corners polygon primitive as box body*
4,1,4,$2,$3,$4,$5,$6,$7,$8,$9,$2,$3,0*
0 Add four circle primitives for the rounded corners*
1,1,$1+$1,$2,$3*
1,1,$1+$1,$4,$5*
1,1,$1+$1,$6,$7*
1,1,$1+$1,$8,$9*
0 Add four rect primitives between the rounded corners*
20,1,$1+$1,$2,$3,$4,$5,0*
20,1,$1+$1,$4,$5,$6,$7,0*
20,1,$1+$1,$6,$7,$8,$9,0*
20,1,$1+$1,$8,$9,$2,$3,0*%
G04 Aperture macros list end*
%ADD10O,1.700000X2.700000*%
%ADD11O,1.700000X1.300000*%
%ADD12R,1.700000X1.700000*%
%ADD13O,1.700000X1.700000*%
%ADD14RoundRect,0.237500X-0.250000X-0.237500X0.250000X-0.237500X0.250000X0.237500X-0.250000X0.237500X0*%
%ADD15RoundRect,0.237500X0.237500X-0.300000X0.237500X0.300000X-0.237500X0.300000X-0.237500X-0.300000X0*%
%ADD16RoundRect,0.237500X-0.300000X-0.237500X0.300000X-0.237500X0.300000X0.237500X-0.300000X0.237500X0*%
%ADD17RoundRect,0.237500X0.237500X-0.250000X0.237500X0.250000X-0.237500X0.250000X-0.237500X-0.250000X0*%
%ADD18RoundRect,0.237500X-0.237500X0.250000X-0.237500X-0.250000X0.237500X-0.250000X0.237500X0.250000X0*%
%ADD19RoundRect,0.150000X0.837500X0.150000X-0.837500X0.150000X-0.837500X-0.150000X0.837500X-0.150000X0*%
%ADD20RoundRect,0.150000X-0.587500X-0.150000X0.587500X-0.150000X0.587500X0.150000X-0.587500X0.150000X0*%
%ADD21RoundRect,0.150000X-0.150000X0.587500X-0.150000X-0.587500X0.150000X-0.587500X0.150000X0.587500X0*%
%ADD22R,1.550000X1.300000*%
%ADD23C,1.524000*%
%ADD24RoundRect,0.150000X0.800000X0.150000X-0.800000X0.150000X-0.800000X-0.150000X0.800000X-0.150000X0*%
%ADD25RoundRect,0.237500X0.237500X-0.287500X0.237500X0.287500X-0.237500X0.287500X-0.237500X-0.287500X0*%
%ADD26RoundRect,0.237500X0.250000X0.237500X-0.250000X0.237500X-0.250000X-0.237500X0.250000X-0.237500X0*%
%ADD27RoundRect,0.237500X0.300000X0.237500X-0.300000X0.237500X-0.300000X-0.237500X0.300000X-0.237500X0*%
G04 APERTURE END LIST*
D10*
%TO.C,J1*%
X131500000Y-114005000D03*
X139000000Y-114005000D03*
X146500000Y-114005000D03*
X134000000Y-111505000D03*
X144000000Y-111505000D03*
D11*
X141500000Y-123905000D03*
X136500000Y-123905000D03*
%TD*%
D12*
%TO.C,TP2*%
X154500000Y-89525000D03*
D13*
X154500000Y-92065000D03*
X154500000Y-94605000D03*
X154500000Y-97145000D03*
X154500000Y-99685000D03*
X154500000Y-102225000D03*
X154500000Y-104765000D03*
X154500000Y-107305000D03*
X154500000Y-109845000D03*
X154500000Y-112385000D03*
X154500000Y-114925000D03*
X154500000Y-117465000D03*
%TD*%
D14*
%TO.C,R5*%
X128587500Y-85000000D03*
X130412500Y-85000000D03*
%TD*%
D15*
%TO.C,C9*%
X132500000Y-55000000D03*
X132500000Y-53275000D03*
%TD*%
D16*
%TO.C,C8*%
X150137500Y-71000000D03*
X151862500Y-71000000D03*
%TD*%
D12*
%TO.C,TP3*%
X185000000Y-82000000D03*
%TD*%
%TO.C,JP1*%
X124000000Y-100500000D03*
D13*
X124000000Y-97960000D03*
%TD*%
D16*
%TO.C,C6*%
X150137500Y-74990000D03*
X151862500Y-74990000D03*
%TD*%
D17*
%TO.C,R1*%
X150500000Y-87500000D03*
X150500000Y-85675000D03*
%TD*%
D16*
%TO.C,C7*%
X111725000Y-82010000D03*
X113450000Y-82010000D03*
%TD*%
D14*
%TO.C,R12*%
X135087500Y-101000000D03*
X136912500Y-101000000D03*
%TD*%
D17*
%TO.C,R14*%
X136500000Y-72912500D03*
X136500000Y-71087500D03*
%TD*%
D16*
%TO.C,C2*%
X135137500Y-99000000D03*
X136862500Y-99000000D03*
%TD*%
D14*
%TO.C,R19*%
X151337500Y-120800000D03*
X153162500Y-120800000D03*
%TD*%
D18*
%TO.C,R9*%
X109000000Y-92087500D03*
X109000000Y-93912500D03*
%TD*%
D14*
%TO.C,R15*%
X138587500Y-68500000D03*
X140412500Y-68500000D03*
%TD*%
D19*
%TO.C,U2*%
X146822500Y-79310000D03*
X146822500Y-78040000D03*
X146822500Y-76770000D03*
X146822500Y-75500000D03*
X146822500Y-74230000D03*
X146822500Y-72960000D03*
X146822500Y-71690000D03*
X139897500Y-71690000D03*
X139897500Y-72960000D03*
X139897500Y-74230000D03*
X139897500Y-75500000D03*
X139897500Y-76770000D03*
X139897500Y-78040000D03*
X139897500Y-79310000D03*
%TD*%
D10*
%TO.C,J2*%
X109000000Y-114005000D03*
X116500000Y-114005000D03*
X124000000Y-114005000D03*
X111500000Y-111505000D03*
X121500000Y-111505000D03*
D11*
X119000000Y-123905000D03*
X114000000Y-123905000D03*
%TD*%
D20*
%TO.C,D1*%
X122562500Y-77550000D03*
X122562500Y-79450000D03*
X124437500Y-78500000D03*
%TD*%
%TO.C,Q5*%
X147562500Y-66050000D03*
X147562500Y-67950000D03*
X149437500Y-67000000D03*
%TD*%
D21*
%TO.C,Q2*%
X113950000Y-87562500D03*
X112050000Y-87562500D03*
X113000000Y-89437500D03*
%TD*%
D22*
%TO.C,SW1*%
X138925000Y-55700000D03*
X146875000Y-55700000D03*
X138925000Y-60200000D03*
X146875000Y-60200000D03*
%TD*%
D23*
%TO.C,U5*%
X110610000Y-53357500D03*
X110610000Y-55897500D03*
X110610000Y-58437500D03*
X110610000Y-60977500D03*
X110610000Y-63517500D03*
X110610000Y-66057500D03*
X110610000Y-68597500D03*
X128390000Y-60977500D03*
X128390000Y-58437500D03*
X128390000Y-55897500D03*
X128390000Y-53357500D03*
%TD*%
D16*
%TO.C,C5*%
X117775000Y-82000000D03*
X119500000Y-82000000D03*
%TD*%
D12*
%TO.C,J3*%
X156060000Y-54530000D03*
D13*
X156060000Y-57070000D03*
X156060000Y-59610000D03*
X156060000Y-62150000D03*
X156060000Y-64690000D03*
X156060000Y-67230000D03*
X156060000Y-69770000D03*
X156060000Y-72310000D03*
X156060000Y-74850000D03*
%TD*%
D12*
%TO.C,JP3*%
X109000000Y-100275000D03*
D13*
X109000000Y-97735000D03*
%TD*%
D21*
%TO.C,Q4*%
X120950000Y-87562500D03*
X119050000Y-87562500D03*
X120000000Y-89437500D03*
%TD*%
D14*
%TO.C,R18*%
X147587500Y-63000000D03*
X149412500Y-63000000D03*
%TD*%
D18*
%TO.C,R8*%
X113000000Y-92087500D03*
X113000000Y-93912500D03*
%TD*%
%TO.C,R20*%
X158200000Y-120787500D03*
X158200000Y-122612500D03*
%TD*%
D16*
%TO.C,C4*%
X117137500Y-74000000D03*
X118862500Y-74000000D03*
%TD*%
D12*
%TO.C,J5*%
X185000000Y-124550000D03*
D13*
X185000000Y-122010000D03*
X185000000Y-119470000D03*
X185000000Y-116930000D03*
X185000000Y-114390000D03*
X185000000Y-111850000D03*
X185000000Y-109310000D03*
X185000000Y-106770000D03*
X185000000Y-104230000D03*
X185000000Y-101690000D03*
X185000000Y-99150000D03*
X185000000Y-96610000D03*
X185000000Y-94070000D03*
X185000000Y-91530000D03*
X185000000Y-88990000D03*
X185000000Y-86450000D03*
%TD*%
D17*
%TO.C,R10*%
X120022500Y-94137500D03*
X120022500Y-92312500D03*
%TD*%
D12*
%TO.C,JP4*%
X113000000Y-100275000D03*
D13*
X113000000Y-97735000D03*
%TD*%
D23*
%TO.C,U4*%
X161140000Y-56870000D03*
X161140000Y-59410000D03*
X161140000Y-61950000D03*
X161140000Y-64490000D03*
X161140000Y-67030000D03*
X161140000Y-69570000D03*
X161140000Y-72110000D03*
X161140000Y-74650000D03*
X161140000Y-77190000D03*
X161140000Y-79730000D03*
X161140000Y-82270000D03*
X161140000Y-84810000D03*
X161140000Y-87350000D03*
X161140000Y-89890000D03*
X161140000Y-92430000D03*
X161140000Y-94970000D03*
X161140000Y-97510000D03*
X161140000Y-100050000D03*
X161140000Y-102590000D03*
X161140000Y-105130000D03*
X161140000Y-107670000D03*
X161140000Y-110210000D03*
X161140000Y-112750000D03*
X161140000Y-115290000D03*
X178920000Y-115290000D03*
X178920000Y-112750000D03*
X178920000Y-110210000D03*
X178920000Y-107670000D03*
X178920000Y-105130000D03*
X178920000Y-102590000D03*
X178920000Y-100050000D03*
X178920000Y-97510000D03*
X178920000Y-94970000D03*
X178920000Y-92430000D03*
X178920000Y-89890000D03*
X178920000Y-87350000D03*
X178920000Y-84810000D03*
X178920000Y-82270000D03*
X178920000Y-79730000D03*
X178920000Y-77190000D03*
X178920000Y-74650000D03*
X178920000Y-72110000D03*
X178920000Y-69570000D03*
X178920000Y-67030000D03*
X178920000Y-64490000D03*
X178920000Y-61950000D03*
X178920000Y-59410000D03*
X178920000Y-56870000D03*
%TD*%
D21*
%TO.C,Q1*%
X109887500Y-87562500D03*
X107987500Y-87562500D03*
X108937500Y-89437500D03*
%TD*%
D18*
%TO.C,R7*%
X124000000Y-92312500D03*
X124000000Y-94137500D03*
%TD*%
D12*
%TO.C,JP2*%
X120000000Y-100500000D03*
D13*
X120000000Y-97960000D03*
%TD*%
D12*
%TO.C,J6*%
X185000000Y-77425000D03*
D13*
X185000000Y-74885000D03*
X185000000Y-72345000D03*
X185000000Y-69805000D03*
X185000000Y-67265000D03*
X185000000Y-64725000D03*
X185000000Y-62185000D03*
X185000000Y-59645000D03*
X185000000Y-57105000D03*
X185000000Y-54565000D03*
%TD*%
D12*
%TO.C,TP4*%
X135000000Y-65000000D03*
%TD*%
D24*
%TO.C,U1*%
X147000000Y-98905000D03*
X147000000Y-97635000D03*
X147000000Y-96365000D03*
X147000000Y-95095000D03*
X140000000Y-95095000D03*
X140000000Y-96365000D03*
X140000000Y-97635000D03*
X140000000Y-98905000D03*
%TD*%
D12*
%TO.C,TP5*%
X139500000Y-103500000D03*
%TD*%
D25*
%TO.C,D5*%
X152800000Y-124575000D03*
X152800000Y-122825000D03*
%TD*%
D14*
%TO.C,R17*%
X108087500Y-74022500D03*
X109912500Y-74022500D03*
%TD*%
D24*
%TO.C,U3*%
X146860000Y-90405000D03*
X146860000Y-89135000D03*
X146860000Y-87865000D03*
X146860000Y-86595000D03*
X139860000Y-86595000D03*
X139860000Y-87865000D03*
X139860000Y-89135000D03*
X139860000Y-90405000D03*
%TD*%
D14*
%TO.C,R16*%
X138587500Y-66522500D03*
X140412500Y-66522500D03*
%TD*%
%TO.C,R4*%
X128587500Y-82500000D03*
X130412500Y-82500000D03*
%TD*%
D26*
%TO.C,R3*%
X130412500Y-80000000D03*
X128587500Y-80000000D03*
%TD*%
D18*
%TO.C,R13*%
X134252500Y-71087500D03*
X134252500Y-72912500D03*
%TD*%
D21*
%TO.C,Q3*%
X124950000Y-87562500D03*
X123050000Y-87562500D03*
X124000000Y-89437500D03*
%TD*%
D27*
%TO.C,C3*%
X114362500Y-74000000D03*
X112637500Y-74000000D03*
%TD*%
D26*
%TO.C,R11*%
X151912500Y-72977500D03*
X150087500Y-72977500D03*
%TD*%
D25*
%TO.C,D6*%
X156350000Y-124475000D03*
X156350000Y-122725000D03*
%TD*%
D12*
%TO.C,J4*%
X175575000Y-123500000D03*
D13*
X173035000Y-123500000D03*
X170495000Y-123500000D03*
X167955000Y-123500000D03*
X165415000Y-123500000D03*
%TD*%
D27*
%TO.C,C1*%
X137000000Y-90500000D03*
X135275000Y-90500000D03*
%TD*%
D20*
%TO.C,D3*%
X112562500Y-77550000D03*
X112562500Y-79450000D03*
X114437500Y-78500000D03*
%TD*%
D14*
%TO.C,R6*%
X111675000Y-84545000D03*
X113500000Y-84545000D03*
%TD*%
D26*
%TO.C,R2*%
X124412500Y-74022500D03*
X122587500Y-74022500D03*
%TD*%
D20*
%TO.C,D2*%
X117562500Y-77550000D03*
X117562500Y-79450000D03*
X119437500Y-78500000D03*
%TD*%
D12*
%TO.C,TP1*%
X108000000Y-82000000D03*
%TD*%
M02*
